<?xml version="1.0" encoding="UTF-8"?>
<svg width="726px" height="574px" viewBox="0 0 726 574" version="1.1" xmlns="http://www.w3.org/2000/svg" xmlns:xlink="http://www.w3.org/1999/xlink">
    <title>arch-hawthorn</title>
    <g id="Page-1" stroke="none" stroke-width="1" fill="none" fill-rule="evenodd">
        <g id="Group">
            <polygon id="Path" fill-opacity="0" fill="#000000" points="0 0 726 0 726 574 0 574"></polygon>
            <path d="M159.87238,287.36176 L159.87238,287.36176 C159.87238,132.99164 285.01409,7.84996 439.38416,7.84996 L439.38416,7.84996 C513.515294,7.84996 584.6102,37.298443 637.02884,89.71707 C689.44748,142.13571 718.89597,213.23062 718.89597,287.36178 L718.89597,287.36178 C718.89597,441.73187 593.75431,566.87356 439.38417,566.87356 L439.38417,566.87356 C285.01408,566.87356 159.87238,441.73187 159.87238,287.36178 L159.87238,287.36176 Z" id="Path" fill="#D9D9D9"></path>
            <path d="M159.87238,287.36176 L159.87238,287.36176 C159.87238,132.99164 285.01409,7.84996 439.38416,7.84996 L439.38416,7.84996 C513.515294,7.84996 584.6102,37.298443 637.02884,89.71707 C689.44748,142.13571 718.89597,213.23062 718.89597,287.36178 L718.89597,287.36178 C718.89597,441.73187 593.75431,566.87356 439.38417,566.87356 L439.38417,566.87356 C285.01408,566.87356 159.87238,441.73187 159.87238,287.36178 L159.87238,287.36176 Z" id="Path" stroke="#000000" stroke-linejoin="round"></path>
            <polygon id="Path" fill-opacity="0" fill="#000000" points="319.5889 225.2515 559.17942 225.2515 559.17942 349.47199 319.5889 349.47199"></polygon>
            <path d="M378.33165,250.42963 C378.33165,248.481713 378.623317,246.851505 379.20665,245.539005 C379.64415,244.559838 380.2379,243.684838 380.9879,242.914005 C381.7379,242.143172 382.560817,241.570255 383.45665,241.195255 C384.64415,240.695255 386.013942,240.445255 387.566025,240.445255 C390.378525,240.445255 392.628525,241.320255 394.316025,243.070255 C396.003525,244.809838 396.847275,247.231713 396.847275,250.33588 C396.847275,253.419213 396.008733,255.830672 394.33165,257.570255 C392.654567,259.309838 390.414983,260.17963 387.6129,260.17963 C384.779567,260.17963 382.524358,259.315047 380.847275,257.58588 C379.170192,255.846297 378.33165,253.46088 378.33165,250.42963 Z M382.3004,250.30463 C382.3004,252.46088 382.8004,254.096297 383.8004,255.21088 C384.8004,256.325463 386.066025,256.882755 387.597275,256.882755 C389.138942,256.882755 390.399358,256.330672 391.378525,255.226505 C392.368108,254.122338 392.8629,252.46088 392.8629,250.24213 C392.8629,248.05463 392.383733,246.424422 391.4254,245.351505 C390.467067,244.278588 389.191025,243.74213 387.597275,243.74213 C386.013942,243.74213 384.732692,244.289005 383.753525,245.382755 C382.784775,246.466088 382.3004,248.106713 382.3004,250.30463 Z M399.722,246.02338 L403.12825,246.02338 L403.12825,248.05463 C403.576167,247.36713 404.175125,246.80463 404.925125,246.36713 C405.675125,245.92963 406.513667,245.71088 407.44075,245.71088 C409.044917,245.71088 410.404292,246.341088 411.518875,247.601505 C412.643875,248.861922 413.206375,250.61713 413.206375,252.86713 C413.206375,255.169213 412.638667,256.96088 411.50325,258.24213 C410.37825,259.52338 409.013667,260.164005 407.4095,260.164005 C406.649083,260.164005 405.956375,260.012963 405.331375,259.71088 C404.716792,259.408797 404.06575,258.887963 403.37825,258.14838 L403.37825,265.11713 L399.722,265.11713 L399.722,246.02338 Z M403.331375,252.71088 C403.331375,254.262963 403.638667,255.408797 404.25325,256.14838 C404.87825,256.887963 405.633458,257.257755 406.518875,257.257755 C407.362625,257.257755 408.06575,256.919213 408.62825,256.24213 C409.201167,255.55463 409.487625,254.434838 409.487625,252.882755 C409.487625,251.434838 409.195958,250.361922 408.612625,249.664005 C408.029292,248.955672 407.305333,248.601505 406.44075,248.601505 C405.555333,248.601505 404.81575,248.950463 404.222,249.64838 C403.62825,250.33588 403.331375,251.356713 403.331375,252.71088 Z M424.114059,255.445255 L427.754684,256.070255 C427.285934,257.403588 426.546351,258.419213 425.535934,259.11713 C424.525517,259.815047 423.259892,260.164005 421.739059,260.164005 C419.332809,260.164005 417.556767,259.377547 416.410934,257.80463 C415.494267,256.544213 415.035934,254.955672 415.035934,253.039005 C415.035934,250.747338 415.634892,248.955672 416.832809,247.664005 C418.030726,246.361922 419.546351,245.71088 421.379684,245.71088 C423.431767,245.71088 425.051559,246.393172 426.239059,247.757755 C427.426559,249.111922 427.994267,251.190047 427.942184,253.99213 L418.785934,253.99213 C418.817184,255.075463 419.114059,255.919213 419.676559,256.52338 C420.239059,257.127547 420.942184,257.42963 421.785934,257.42963 C422.358851,257.42963 422.838017,257.27338 423.223434,256.96088 C423.619267,256.64838 423.916142,256.143172 424.114059,255.445255 Z M424.317184,251.757755 C424.296351,250.695255 424.025517,249.887963 423.504684,249.33588 C422.983851,248.783797 422.348434,248.507755 421.598434,248.507755 C420.796351,248.507755 420.134892,248.799422 419.614059,249.382755 C419.093226,249.966088 418.838017,250.757755 418.848434,251.757755 L424.317184,251.757755 Z M443.50151,259.851505 L439.84526,259.851505 L439.84526,252.80463 C439.84526,251.30463 439.767135,250.33588 439.610885,249.89838 C439.454635,249.46088 439.199427,249.122338 438.84526,248.882755 C438.50151,248.632755 438.079635,248.507755 437.579635,248.507755 C436.944218,248.507755 436.37651,248.684838 435.87651,249.039005 C435.37651,249.382755 435.03276,249.841088 434.84526,250.414005 C434.65776,250.986922 434.56401,252.044213 434.56401,253.58588 L434.56401,259.851505 L430.90776,259.851505 L430.90776,246.02338 L434.298385,246.02338 L434.298385,248.05463 C435.506718,246.49213 437.027552,245.71088 438.860885,245.71088 C439.662968,245.71088 440.397343,245.856713 441.06401,246.14838 C441.741093,246.440047 442.246302,246.815047 442.579635,247.27338 C442.923385,247.721297 443.162968,248.231713 443.298385,248.80463 C443.433802,249.377547 443.50151,250.195255 443.50151,251.257755 L443.50151,259.851505 Z M462.62767,255.445255 L466.268295,256.070255 C465.799545,257.403588 465.059962,258.419213 464.049545,259.11713 C463.039128,259.815047 461.773503,260.164005 460.25267,260.164005 C457.84642,260.164005 456.070378,259.377547 454.924545,257.80463 C454.007878,256.544213 453.549545,254.955672 453.549545,253.039005 C453.549545,250.747338 454.148503,248.955672 455.34642,247.664005 C456.544337,246.361922 458.059962,245.71088 459.893295,245.71088 C461.945378,245.71088 463.56517,246.393172 464.75267,247.757755 C465.94017,249.111922 466.507878,251.190047 466.455795,253.99213 L457.299545,253.99213 C457.330795,255.075463 457.62767,255.919213 458.19017,256.52338 C458.75267,257.127547 459.455795,257.42963 460.299545,257.42963 C460.872462,257.42963 461.351628,257.27338 461.737045,256.96088 C462.132878,256.64838 462.429753,256.143172 462.62767,255.445255 Z M462.830795,251.757755 C462.809962,250.695255 462.539128,249.887963 462.018295,249.33588 C461.497462,248.783797 460.862045,248.507755 460.112045,248.507755 C459.309962,248.507755 458.648503,248.799422 458.12767,249.382755 C457.606837,249.966088 457.351628,250.757755 457.362045,251.757755 L462.830795,251.757755 Z M482.124496,259.851505 L478.718246,259.851505 L478.718246,257.820255 C478.155746,258.611922 477.489079,259.200463 476.718246,259.58588 C475.957829,259.971297 475.186996,260.164005 474.405746,260.164005 C472.811996,260.164005 471.447413,259.52338 470.311996,258.24213 C469.186996,256.96088 468.624496,255.174422 468.624496,252.882755 C468.624496,250.539005 469.176579,248.757755 470.280746,247.539005 C471.384913,246.320255 472.775538,245.71088 474.452621,245.71088 C475.994288,245.71088 477.332829,246.356713 478.468246,247.64838 L478.468246,240.77338 L482.124496,240.77338 L482.124496,259.851505 Z M472.358871,252.64838 C472.358871,254.11713 472.561996,255.17963 472.968246,255.83588 C473.561996,256.794213 474.384913,257.27338 475.436996,257.27338 C476.280746,257.27338 476.999496,256.919213 477.593246,256.21088 C478.186996,255.49213 478.483871,254.419213 478.483871,252.99213 C478.483871,251.408797 478.197413,250.268172 477.624496,249.570255 C477.051579,248.861922 476.317204,248.507755 475.421371,248.507755 C474.556788,248.507755 473.827621,248.856713 473.233871,249.55463 C472.650538,250.24213 472.358871,251.27338 472.358871,252.64838 Z M483.8134,259.851505 L490.329025,249.89838 L484.422775,240.77338 L488.922775,240.77338 L492.7509,246.89838 L496.5009,240.77338 L500.96965,240.77338 L495.03215,250.039005 L501.547775,259.851505 L496.90715,259.851505 L492.672775,253.257755 L488.4384,259.851505 L483.8134,259.851505 Z" id="Shape" fill="#000000" fill-rule="nonzero"></path>
            <path d="M387.26076,291.8515 L387.26076,272.773375 L393.44826,272.773375 C395.79201,272.773375 397.318052,272.867125 398.026385,273.054625 C399.120135,273.346292 400.036802,273.971292 400.776385,274.929625 C401.515968,275.887958 401.88576,277.122333 401.88576,278.63275 C401.88576,279.809833 401.672218,280.799417 401.245135,281.6015 C400.818052,282.393167 400.276385,283.018167 399.620135,283.4765 C398.963885,283.934833 398.297218,284.236917 397.620135,284.38275 C396.703468,284.559833 395.370135,284.648375 393.620135,284.648375 L391.120135,284.648375 L391.120135,291.8515 L387.26076,291.8515 Z M391.120135,275.992125 L391.120135,281.414 L393.22951,281.414 C394.739927,281.414 395.750343,281.315042 396.26076,281.117125 C396.781593,280.919208 397.187843,280.606708 397.47951,280.179625 C397.771177,279.752542 397.91701,279.25775 397.91701,278.69525 C397.91701,277.997333 397.708677,277.424417 397.29201,276.9765 C396.88576,276.528583 396.370135,276.247333 395.745135,276.13275 C395.286802,276.039 394.364927,275.992125 392.97951,275.992125 L391.120135,275.992125 Z M405.009021,291.8515 L405.009021,272.773375 L408.680896,272.773375 L408.680896,291.8515 L405.009021,291.8515 Z M415.149371,282.242125 L411.836871,281.648375 C412.211871,280.315042 412.852496,279.325458 413.758746,278.679625 C414.675412,278.033792 416.029579,277.710875 417.821246,277.710875 C419.456662,277.710875 420.670204,277.903583 421.461871,278.289 C422.263954,278.674417 422.826454,279.169208 423.149371,279.773375 C423.482704,280.367125 423.649371,281.455667 423.649371,283.039 L423.602496,287.304625 C423.602496,288.523375 423.659787,289.424417 423.774371,290.00775 C423.888954,290.580667 424.107704,291.19525 424.430621,291.8515 L420.821246,291.8515 C420.727496,291.611917 420.607704,291.252542 420.461871,290.773375 C420.399371,290.554625 420.357704,290.408792 420.336871,290.335875 C419.711871,290.950458 419.039996,291.408792 418.321246,291.710875 C417.612912,292.012958 416.857704,292.164 416.055621,292.164 C414.628537,292.164 413.503537,291.778583 412.680621,291.00775 C411.868121,290.236917 411.461871,289.25775 411.461871,288.07025 C411.461871,287.289 411.644162,286.596292 412.008746,285.992125 C412.383746,285.377542 412.909787,284.908792 413.586871,284.585875 C414.263954,284.262958 415.232704,283.9765 416.493121,283.7265 C418.201454,283.403583 419.388954,283.106708 420.055621,282.835875 L420.055621,282.460875 C420.055621,281.762958 419.878537,281.262958 419.524371,280.960875 C419.180621,280.658792 418.524371,280.50775 417.555621,280.50775 C416.909787,280.50775 416.404579,280.637958 416.039996,280.898375 C415.675412,281.158792 415.378537,281.606708 415.149371,282.242125 Z M420.055621,285.210875 C419.586871,285.367125 418.842079,285.554625 417.821246,285.773375 C416.810829,285.992125 416.149371,286.205667 415.836871,286.414 C415.357704,286.747333 415.118121,287.174417 415.118121,287.69525 C415.118121,288.205667 415.305621,288.648375 415.680621,289.023375 C416.066037,289.398375 416.555621,289.585875 417.149371,289.585875 C417.805621,289.585875 418.435829,289.367125 419.039996,288.929625 C419.477496,288.606708 419.763954,288.205667 419.899371,287.7265 C420.003537,287.414 420.055621,286.82025 420.055621,285.94525 L420.055621,285.210875 Z M433.583667,278.023375 L433.583667,280.94525 L431.083667,280.94525 L431.083667,286.50775 C431.083667,287.643167 431.1045,288.304625 431.146167,288.492125 C431.19825,288.679625 431.307625,288.835875 431.474292,288.960875 C431.651375,289.075458 431.859708,289.13275 432.099292,289.13275 C432.443042,289.13275 432.932625,289.012958 433.568042,288.773375 L433.880542,291.617125 C433.036792,291.981708 432.07325,292.164 430.989917,292.164 C430.333667,292.164 429.739917,292.054625 429.208667,291.835875 C428.677417,291.617125 428.286792,291.330667 428.036792,290.9765 C427.797208,290.622333 427.630542,290.148375 427.536792,289.554625 C427.453458,289.127542 427.411792,288.268167 427.411792,286.9765 L427.411792,280.94525 L425.739917,280.94525 L425.739917,278.023375 L427.411792,278.023375 L427.411792,275.289 L431.083667,273.148375 L431.083667,278.023375 L433.583667,278.023375 Z M434.522906,278.023375 L436.554156,278.023375 L436.554156,276.992125 C436.554156,275.825458 436.673948,274.955667 436.913531,274.38275 C437.163531,273.809833 437.621864,273.346292 438.288531,272.992125 C438.955198,272.627542 439.793739,272.44525 440.804156,272.44525 C441.845823,272.44525 442.866656,272.6015 443.866656,272.914 L443.366656,275.460875 C442.793739,275.325458 442.236448,275.25775 441.694781,275.25775 C441.163531,275.25775 440.783323,275.38275 440.554156,275.63275 C440.324989,275.872333 440.210406,276.346292 440.210406,277.054625 L440.210406,278.023375 L442.944781,278.023375 L442.944781,280.898375 L440.210406,280.898375 L440.210406,291.8515 L436.554156,291.8515 L436.554156,280.898375 L434.522906,280.898375 L434.522906,278.023375 Z M444.149646,284.742125 C444.149646,283.533792 444.446521,282.361917 445.040271,281.2265 C445.644437,280.080667 446.493396,279.210875 447.587146,278.617125 C448.691333,278.012958 449.920509,277.710875 451.274676,277.710875 C453.368426,277.710875 455.081968,278.393167 456.415301,279.75775 C457.748634,281.111917 458.415301,282.825458 458.415301,284.898375 C458.415301,286.992125 457.738218,288.7265 456.384051,290.1015 C455.040301,291.4765 453.347593,292.164 451.305926,292.164 C450.035093,292.164 448.821551,291.877542 447.665301,291.304625 C446.519447,290.731708 445.644437,289.893167 445.040271,288.789 C444.446521,287.684833 444.149646,286.335875 444.149646,284.742125 Z M447.899676,284.94525 C447.899676,286.309833 448.222593,287.356708 448.868426,288.085875 C449.524676,288.815042 450.331968,289.179625 451.290301,289.179625 C452.238218,289.179625 453.035093,288.815042 453.680926,288.085875 C454.337176,287.356708 454.665301,286.299417 454.665301,284.914 C454.665301,283.559833 454.337176,282.518167 453.680926,281.789 C453.035093,281.059833 452.238218,280.69525 451.290301,280.69525 C450.331968,280.69525 449.524676,281.059833 448.868426,281.789 C448.222593,282.518167 447.899676,283.57025 447.899676,284.94525 Z M464.791736,291.8515 L461.119861,291.8515 L461.119861,278.023375 L464.526111,278.023375 L464.526111,279.992125 C465.109444,279.065042 465.630278,278.455667 466.088611,278.164 C466.557361,277.861917 467.083403,277.710875 467.666736,277.710875 C468.500069,277.710875 469.307361,277.94525 470.088611,278.414 L468.947986,281.6015 C468.333403,281.19525 467.760486,280.992125 467.229236,280.992125 C466.718819,280.992125 466.286528,281.13275 465.932361,281.414 C465.578194,281.69525 465.296944,282.205667 465.088611,282.94525 C464.890694,283.684833 464.791736,285.231708 464.791736,287.585875 L464.791736,291.8515 L464.791736,291.8515 Z M471.384021,278.023375 L474.759021,278.023375 L474.759021,279.914 C475.956938,278.44525 477.389229,277.710875 479.055896,277.710875 C479.941313,277.710875 480.706938,277.893167 481.352771,278.25775 C482.009021,278.622333 482.545479,279.174417 482.962146,279.914 C483.576729,279.174417 484.232979,278.622333 484.930896,278.25775 C485.639229,277.893167 486.389229,277.710875 487.180896,277.710875 C488.201729,277.710875 489.061104,277.919208 489.759021,278.335875 C490.467354,278.742125 490.993396,279.346292 491.337146,280.148375 C491.587146,280.742125 491.712146,281.69525 491.712146,283.00775 L491.712146,291.8515 L488.055896,291.8515 L488.055896,283.94525 C488.055896,282.580667 487.930896,281.69525 487.680896,281.289 C487.337146,280.768167 486.816313,280.50775 486.118396,280.50775 C485.607979,280.50775 485.123604,280.664 484.665271,280.9765 C484.217354,281.289 483.894438,281.747333 483.696521,282.3515 C483.498604,282.955667 483.399646,283.908792 483.399646,285.210875 L483.399646,291.8515 L479.743396,291.8515 L479.743396,284.273375 C479.743396,282.929625 479.675688,282.065042 479.540271,281.679625 C479.415271,281.283792 479.212146,280.992125 478.930896,280.804625 C478.660063,280.606708 478.290271,280.50775 477.821521,280.50775 C477.259021,280.50775 476.753813,280.664 476.305896,280.9765 C475.857979,281.278583 475.535063,281.716083 475.337146,282.289 C475.139229,282.861917 475.040271,283.809833 475.040271,285.13275 L475.040271,291.8515 L471.384021,291.8515 L471.384021,278.023375 Z" id="Shape" fill="#000000" fill-rule="nonzero"></path>
            <path d="M377.03795,329.46088 L374.522325,329.46088 C373.188992,327.46088 372.173367,325.382755 371.47545,323.226505 C370.78795,321.059838 370.4442,318.966088 370.4442,316.945255 C370.4442,314.434838 370.876492,312.059838 371.741075,309.820255 C372.480658,307.872338 373.423367,306.080672 374.5692,304.445255 L377.0692,304.445255 C375.8817,307.070255 375.063992,309.30463 374.616075,311.14838 C374.168158,312.99213 373.9442,314.950463 373.9442,317.02338 C373.9442,318.440047 374.074408,319.89838 374.334825,321.39838 C374.605658,322.887963 374.970242,324.30463 375.428575,325.64838 C375.730658,326.533797 376.267117,327.80463 377.03795,329.46088 Z M379.88344,323.851505 L379.88344,304.77338 L383.742815,304.77338 L383.742815,312.27338 L391.28969,312.27338 L391.28969,304.77338 L395.13344,304.77338 L395.13344,323.851505 L391.28969,323.851505 L391.28969,315.507755 L383.742815,315.507755 L383.742815,323.851505 L379.88344,323.851505 Z M401.821245,314.24213 L398.508745,313.64838 C398.883745,312.315047 399.52437,311.325463 400.43062,310.67963 C401.347286,310.033797 402.701453,309.71088 404.49312,309.71088 C406.128536,309.71088 407.342078,309.903588 408.133745,310.289005 C408.935828,310.674422 409.498328,311.169213 409.821245,311.77338 C410.154578,312.36713 410.321245,313.455672 410.321245,315.039005 L410.27437,319.30463 C410.27437,320.52338 410.331661,321.424422 410.446245,322.007755 C410.560828,322.580672 410.779578,323.195255 411.102495,323.851505 L407.49312,323.851505 C407.39937,323.611922 407.279578,323.252547 407.133745,322.77338 C407.071245,322.55463 407.029578,322.408797 407.008745,322.33588 C406.383745,322.950463 405.71187,323.408797 404.99312,323.71088 C404.284786,324.012963 403.529578,324.164005 402.727495,324.164005 C401.300411,324.164005 400.175411,323.778588 399.352495,323.007755 C398.539995,322.236922 398.133745,321.257755 398.133745,320.070255 C398.133745,319.289005 398.316036,318.596297 398.68062,317.99213 C399.05562,317.377547 399.581661,316.908797 400.258745,316.58588 C400.935828,316.262963 401.904578,315.976505 403.164995,315.726505 C404.873328,315.403588 406.060828,315.106713 406.727495,314.83588 L406.727495,314.46088 C406.727495,313.762963 406.550411,313.262963 406.196245,312.96088 C405.852495,312.658797 405.196245,312.507755 404.227495,312.507755 C403.581661,312.507755 403.076453,312.637963 402.71187,312.89838 C402.347286,313.158797 402.050411,313.606713 401.821245,314.24213 Z M406.727495,317.21088 C406.258745,317.36713 405.513953,317.55463 404.49312,317.77338 C403.482703,317.99213 402.821245,318.205672 402.508745,318.414005 C402.029578,318.747338 401.789995,319.174422 401.789995,319.695255 C401.789995,320.205672 401.977495,320.64838 402.352495,321.02338 C402.737911,321.39838 403.227495,321.58588 403.821245,321.58588 C404.477495,321.58588 405.107703,321.36713 405.71187,320.92963 C406.14937,320.606713 406.435828,320.205672 406.571245,319.726505 C406.675411,319.414005 406.727495,318.820255 406.727495,317.945255 L406.727495,317.21088 Z M416.489916,323.851505 L412.114916,310.02338 L415.677416,310.02338 L418.271166,319.08588 L420.646166,310.02338 L424.177416,310.02338 L426.474291,319.08588 L429.114916,310.02338 L432.724291,310.02338 L428.286791,323.851505 L424.771166,323.851505 L422.396166,314.96088 L420.052416,323.851505 L416.489916,323.851505 Z M440.989641,310.02338 L440.989641,312.945255 L438.489641,312.945255 L438.489641,318.507755 C438.489641,319.643172 438.510474,320.30463 438.552141,320.49213 C438.604224,320.67963 438.713599,320.83588 438.880266,320.96088 C439.057349,321.075463 439.265682,321.132755 439.505266,321.132755 C439.849016,321.132755 440.338599,321.012963 440.974016,320.77338 L441.286516,323.61713 C440.442766,323.981713 439.479224,324.164005 438.395891,324.164005 C437.739641,324.164005 437.145891,324.05463 436.614641,323.83588 C436.083391,323.61713 435.692766,323.330672 435.442766,322.976505 C435.203182,322.622338 435.036516,322.14838 434.942766,321.55463 C434.859432,321.127547 434.817766,320.268172 434.817766,318.976505 L434.817766,312.945255 L433.145891,312.945255 L433.145891,310.02338 L434.817766,310.02338 L434.817766,307.289005 L438.489641,305.14838 L438.489641,310.02338 L440.989641,310.02338 Z M447.17888,304.77338 L447.17888,311.789005 C448.355963,310.403588 449.762213,309.71088 451.39763,309.71088 C452.24138,309.71088 453.001797,309.86713 453.67888,310.17963 C454.355963,310.49213 454.86638,310.893172 455.21013,311.382755 C455.55388,311.872338 455.788255,312.414005 455.913255,313.007755 C456.038255,313.591088 456.100755,314.502547 456.100755,315.74213 L456.100755,323.851505 L452.444505,323.851505 L452.444505,316.55463 C452.444505,315.106713 452.371588,314.190047 452.225755,313.80463 C452.090338,313.408797 451.845547,313.096297 451.49138,312.86713 C451.14763,312.627547 450.71013,312.507755 450.17888,312.507755 C449.574713,312.507755 449.033047,312.658797 448.55388,312.96088 C448.074713,313.252547 447.725755,313.695255 447.507005,314.289005 C447.288255,314.882755 447.17888,315.762963 447.17888,316.92963 L447.17888,323.851505 L443.52263,323.851505 L443.52263,304.77338 L447.17888,304.77338 Z M458.961595,316.74213 C458.961595,315.533797 459.25847,314.361922 459.85222,313.226505 C460.456387,312.080672 461.305345,311.21088 462.399095,310.61713 C463.503262,310.012963 464.732428,309.71088 466.086595,309.71088 C468.180345,309.71088 469.893887,310.393172 471.22722,311.757755 C472.560553,313.111922 473.22722,314.825463 473.22722,316.89838 C473.22722,318.99213 472.550137,320.726505 471.19597,322.101505 C469.85222,323.476505 468.159512,324.164005 466.117845,324.164005 C464.847012,324.164005 463.63347,323.877547 462.47722,323.30463 C461.331387,322.731713 460.456387,321.893172 459.85222,320.789005 C459.25847,319.684838 458.961595,318.33588 458.961595,316.74213 L458.961595,316.74213 Z M462.711595,316.945255 C462.711595,318.309838 463.034512,319.356713 463.680345,320.08588 C464.336595,320.815047 465.143887,321.17963 466.10222,321.17963 C467.050137,321.17963 467.847012,320.815047 468.492845,320.08588 C469.149095,319.356713 469.47722,318.299422 469.47722,316.914005 C469.47722,315.559838 469.149095,314.518172 468.492845,313.789005 C467.847012,313.059838 467.050137,312.695255 466.10222,312.695255 C465.143887,312.695255 464.336595,313.059838 463.680345,313.789005 C463.034512,314.518172 462.711595,315.570255 462.711595,316.945255 L462.711595,316.945255 Z M479.603624,323.851505 L475.931749,323.851505 L475.931749,310.02338 L479.337999,310.02338 L479.337999,311.99213 C479.921332,311.065047 480.442166,310.455672 480.900499,310.164005 C481.369249,309.861922 481.895291,309.71088 482.478624,309.71088 C483.311957,309.71088 484.119249,309.945255 484.900499,310.414005 L483.759874,313.601505 C483.145291,313.195255 482.572374,312.99213 482.041124,312.99213 C481.530707,312.99213 481.098416,313.132755 480.744249,313.414005 C480.390082,313.695255 480.108832,314.205672 479.900499,314.945255 C479.702582,315.684838 479.603624,317.231713 479.603624,319.58588 L479.603624,323.851505 Z M499.03972,323.851505 L495.38347,323.851505 L495.38347,316.80463 C495.38347,315.30463 495.305345,314.33588 495.149095,313.89838 C494.992845,313.46088 494.737637,313.122338 494.38347,312.882755 C494.03972,312.632755 493.617845,312.507755 493.117845,312.507755 C492.482428,312.507755 491.91472,312.684838 491.41472,313.039005 C490.91472,313.382755 490.57097,313.841088 490.38347,314.414005 C490.19597,314.986922 490.10222,316.044213 490.10222,317.58588 L490.10222,323.851505 L486.44597,323.851505 L486.44597,310.02338 L489.836595,310.02338 L489.836595,312.05463 C491.044928,310.49213 492.565762,309.71088 494.399095,309.71088 C495.201178,309.71088 495.935553,309.856713 496.60222,310.14838 C497.279303,310.440047 497.784512,310.815047 498.117845,311.27338 C498.461595,311.721297 498.701178,312.231713 498.836595,312.80463 C498.972012,313.377547 499.03972,314.195255 499.03972,315.257755 L499.03972,323.851505 Z M501.728624,329.46088 C502.45779,327.919213 502.968207,326.731713 503.259874,325.89838 C503.55154,325.075463 503.822374,324.127547 504.072374,323.05463 C504.33279,321.981713 504.52029,320.96088 504.634874,319.99213 C504.759874,319.02338 504.822374,318.033797 504.822374,317.02338 C504.822374,314.950463 504.598415,312.99213 504.150499,311.14838 C503.712999,309.30463 502.900499,307.070255 501.712999,304.445255 L504.197374,304.445255 C505.509874,306.309838 506.525499,308.289005 507.244249,310.382755 C507.973415,312.476505 508.337999,314.596297 508.337999,316.74213 C508.337999,318.55463 508.05154,320.497338 507.478624,322.570255 C506.822374,324.903588 505.749457,327.200463 504.259874,329.46088 L501.728624,329.46088 Z" id="Shape" fill="#000000" fill-rule="nonzero"></path>
            <polygon id="Path" fill="#F3F3F3" points="7.760064 211.19547 226.736444 211.19547 299.728574 284.1876 226.736444 357.17973 7.760064 357.17973"></polygon>
            <polygon id="Path" stroke="#000000" stroke-linejoin="round" points="7.760064 211.19547 226.736444 211.19547 299.728574 284.1876 226.736444 357.17973 7.760064 357.17973"></polygon>
            <polygon id="Path" fill-opacity="0" fill="#000000" points="22.972664 230.86475 230.846664 230.86475 230.846664 337.51044 22.972664 337.51044"></polygon>
            <path d="M39.92579,245.71725 L43.378915,245.71725 L43.378915,256.59225 C43.378915,258.019333 43.253915,259.113083 43.003915,259.8735 C42.6705817,260.8735 42.0612067,261.680792 41.17579,262.295375 C40.2903733,262.899542 39.1237067,263.201625 37.67579,263.201625 C35.98829,263.201625 34.6862067,262.727667 33.76954,261.77975 C32.8528733,260.821417 32.3893317,259.425583 32.378915,257.59225 L35.660165,257.21725 C35.691415,258.206833 35.83204,258.90475 36.08204,259.311 C36.45704,259.925583 37.0299567,260.232875 37.80079,260.232875 C38.5716233,260.232875 39.1184983,260.014125 39.441415,259.576625 C39.7643317,259.128708 39.92579,258.212042 39.92579,256.826625 L39.92579,245.71725 Z M54.257821,258.936 L57.539071,259.4985 C57.1119877,260.696417 56.4401127,261.613083 55.523446,262.2485 C54.617196,262.8735 53.4817793,263.186 52.117196,263.186 C49.9505293,263.186 48.351571,262.477667 47.320321,261.061 C46.4974043,259.925583 46.085946,258.4985 46.085946,256.77975 C46.085946,254.71725 46.6224043,253.102667 47.695321,251.936 C48.7786543,250.758917 50.1432377,250.170375 51.789071,250.170375 C53.6432377,250.170375 55.101571,250.784958 56.164071,252.014125 C57.2369877,253.232875 57.7526127,255.102667 57.710946,257.6235 L49.460946,257.6235 C49.4817793,258.602667 49.7474043,259.363083 50.257821,259.90475 C50.7682377,260.446417 51.398446,260.71725 52.148446,260.71725 C52.6692793,260.71725 53.101571,260.576625 53.445321,260.295375 C53.7994877,260.014125 54.070321,259.561 54.257821,258.936 Z M54.445321,255.607875 C54.414071,254.659958 54.164071,253.941208 53.695321,253.451625 C53.226571,252.951625 52.6588627,252.701625 51.992196,252.701625 C51.273446,252.701625 50.679696,252.962042 50.210946,253.482875 C49.742196,254.003708 49.5130293,254.712042 49.523446,255.607875 L54.445321,255.607875 Z M60.2773522,262.90475 L60.2773522,245.71725 L63.5742272,245.71725 L63.5742272,254.84225 L67.4179772,250.451625 L71.4804772,250.451625 L67.2304772,254.9985 L71.7773522,262.90475 L68.2304772,262.90475 L65.1054772,257.311 L63.5742272,258.920375 L63.5742272,262.90475 L60.2773522,262.90475 Z M72.1875082,250.451625 L75.6875082,250.451625 L78.6562582,259.295375 L81.5625082,250.451625 L84.9843756,250.451625 L80.5781332,262.436 L79.7968832,264.607875 C79.5052165,265.337042 79.2291749,265.889125 78.9687582,266.264125 C78.7083415,266.649542 78.4062582,266.962042 78.0625082,267.201625 C77.7291749,267.441208 77.3125082,267.6235 76.8125082,267.7485 C76.3229249,267.883917 75.7656332,267.951625 75.1406332,267.951625 C74.5052165,267.951625 73.8802165,267.889125 73.2656332,267.764125 L72.9843832,265.186 C73.4947999,265.27975 73.9583415,265.326625 74.3750082,265.326625 C75.1354249,265.326625 75.6979249,265.102667 76.0625082,264.65475 C76.4375082,264.206833 76.7239665,263.633917 76.9218832,262.936 L72.1875082,250.451625 L72.1875082,250.451625 Z M87.0820322,262.90475 L87.0820322,245.71725 L90.3789072,245.71725 L90.3789072,262.90475 L87.0820322,262.90475 Z M93.750001,262.90475 L93.750001,245.71725 L97.046876,245.71725 L97.046876,262.90475 L93.750001,262.90475 Z M101.058595,253.7485 L101.058595,250.451625 L104.35547,250.451625 L104.35547,253.7485 L101.058595,253.7485 Z M101.058595,262.90475 L101.058595,259.607875 L104.35547,259.607875 L104.35547,262.90475 L101.058595,262.90475 Z" id="Shape" fill="#000000" fill-rule="nonzero"></path>
            <path d="M32.847664,286.111 L36.222664,285.782875 C36.4205807,286.918292 36.8268307,287.751625 37.441414,288.282875 C38.066414,288.814125 38.910164,289.07975 39.972664,289.07975 C41.0872473,289.07975 41.925789,288.845375 42.488289,288.376625 C43.0612057,287.897458 43.347664,287.340167 43.347664,286.70475 C43.347664,286.2985 43.2278723,285.95475 42.988289,285.6735 C42.7487057,285.39225 42.332039,285.14225 41.738289,284.9235 C41.332039,284.788083 40.4049557,284.538083 38.957039,284.1735 C37.1028723,283.715167 35.800789,283.152667 35.050789,282.486 C33.988289,281.538083 33.457039,280.381833 33.457039,279.01725 C33.457039,278.14225 33.707039,277.324542 34.207039,276.564125 C34.707039,275.803708 35.4205807,275.225583 36.347664,274.82975 C37.285164,274.433917 38.4153723,274.236 39.738289,274.236 C41.894539,274.236 43.5143307,274.709958 44.597664,275.657875 C45.691414,276.595375 46.2643307,277.855792 46.316414,279.439125 L42.847664,279.57975 C42.7018307,278.70475 42.3841223,278.074542 41.894539,277.689125 C41.4049557,277.293292 40.6705807,277.095375 39.691414,277.095375 C38.691414,277.095375 37.9049557,277.303708 37.332039,277.720375 C36.9674557,277.991208 36.785164,278.345375 36.785164,278.782875 C36.785164,279.189125 36.957039,279.538083 37.300789,279.82975 C37.738289,280.194333 38.800789,280.57975 40.488289,280.986 C42.175789,281.381833 43.4205807,281.793292 44.222664,282.220375 C45.035164,282.647458 45.6705807,283.230792 46.128914,283.970375 C46.5872473,284.699542 46.816414,285.611 46.816414,286.70475 C46.816414,287.683917 46.5403723,288.605792 45.988289,289.470375 C45.4466223,290.324542 44.675789,290.965167 43.675789,291.39225 C42.675789,291.808917 41.425789,292.01725 39.925789,292.01725 C37.7591223,292.01725 36.0924557,291.51725 34.925789,290.51725 C33.7591223,289.506833 33.066414,288.038083 32.847664,286.111 Z M55.417976,279.251625 L55.417976,281.876625 L53.167976,281.876625 L53.167976,286.89225 C53.167976,287.913083 53.1888093,288.506833 53.230476,288.6735 C53.2721427,288.840167 53.3658927,288.980792 53.511726,289.095375 C53.667976,289.199542 53.855476,289.251625 54.074226,289.251625 C54.3763093,289.251625 54.8190177,289.147458 55.402351,288.939125 L55.683601,291.486 C54.9127677,291.819333 54.042976,291.986 53.074226,291.986 C52.480476,291.986 51.9440177,291.887042 51.464851,291.689125 C50.996101,291.491208 50.6471427,291.236 50.417976,290.9235 C50.199226,290.600583 50.0481843,290.168292 49.964851,289.626625 C49.8919343,289.241208 49.855476,288.470375 49.855476,287.314125 L49.855476,281.876625 L48.339851,281.876625 L48.339851,279.251625 L49.855476,279.251625 L49.855476,276.782875 L53.167976,274.861 L53.167976,279.251625 L55.417976,279.251625 Z M60.1601635,283.0485 L57.1757885,282.51725 C57.5091218,281.308917 58.0820385,280.418292 58.8945385,279.845375 C59.7174552,279.262042 60.9414135,278.970375 62.5664135,278.970375 C64.0351635,278.970375 65.1289135,279.147458 65.8476635,279.501625 C66.5664135,279.845375 67.0716218,280.288083 67.3632885,280.82975 C67.6549552,281.361 67.8007885,282.340167 67.8007885,283.76725 L67.7695385,287.611 C67.7695385,288.70475 67.8216218,289.512042 67.9257885,290.032875 C68.0299552,290.553708 68.2278718,291.111 68.5195385,291.70475 L65.2539135,291.70475 C65.1705802,291.486 65.0664135,291.163083 64.9414135,290.736 C64.8893302,290.538083 64.8476635,290.407875 64.8164135,290.345375 C64.2539135,290.887042 63.6497468,291.2985 63.0039135,291.57975 C62.3684968,291.850583 61.6914135,291.986 60.9726635,291.986 C59.6914135,291.986 58.6809968,291.637042 57.9414135,290.939125 C57.2018302,290.241208 56.8320385,289.361 56.8320385,288.2985 C56.8320385,287.600583 56.9987052,286.975583 57.3320385,286.4235 C57.6653718,285.871417 58.1341218,285.449542 58.7382885,285.157875 C59.3528718,284.866208 60.2278718,284.611 61.3632885,284.39225 C62.9049552,284.100583 63.9726635,283.82975 64.5664135,283.57975 L64.5664135,283.251625 C64.5664135,282.616208 64.4101635,282.168292 64.0976635,281.907875 C63.7851635,281.637042 63.1966218,281.501625 62.3320385,281.501625 C61.7382885,281.501625 61.2747468,281.616208 60.9414135,281.845375 C60.6184968,282.074542 60.3580802,282.475583 60.1601635,283.0485 Z M64.5664135,285.720375 C64.1393302,285.866208 63.4674552,286.038083 62.5507885,286.236 C61.6445385,286.4235 61.0507885,286.611 60.7695385,286.7985 C60.3424552,287.111 60.1289135,287.501625 60.1289135,287.970375 C60.1289135,288.428708 60.3007885,288.824542 60.6445385,289.157875 C60.9882885,289.491208 61.4257885,289.657875 61.9570385,289.657875 C62.5507885,289.657875 63.1132885,289.465167 63.6445385,289.07975 C64.0507885,288.777667 64.3164135,288.413083 64.4414135,287.986 C64.5247468,287.70475 64.5664135,287.168292 64.5664135,286.376625 L64.5664135,285.720375 Z M76.7578195,279.251625 L76.7578195,281.876625 L74.5078195,281.876625 L74.5078195,286.89225 C74.5078195,287.913083 74.5286528,288.506833 74.5703195,288.6735 C74.6119862,288.840167 74.7057362,288.980792 74.8515695,289.095375 C75.0078195,289.199542 75.1953195,289.251625 75.4140695,289.251625 C75.7161528,289.251625 76.1588612,289.147458 76.7421945,288.939125 L77.0234445,291.486 C76.2526112,291.819333 75.3828195,291.986 74.4140695,291.986 C73.8203195,291.986 73.2838612,291.887042 72.8046945,291.689125 C72.3359445,291.491208 71.9869862,291.236 71.7578195,290.9235 C71.5390695,290.600583 71.3880278,290.168292 71.3046945,289.626625 C71.2317778,289.241208 71.1953195,288.470375 71.1953195,287.314125 L71.1953195,281.876625 L69.6796945,281.876625 L69.6796945,279.251625 L71.1953195,279.251625 L71.1953195,276.782875 L74.5078195,274.861 L74.5078195,279.251625 L76.7578195,279.251625 Z M79.031257,277.564125 L79.031257,274.51725 L82.328132,274.51725 L82.328132,277.564125 L79.031257,277.564125 Z M79.031257,291.70475 L79.031257,279.251625 L82.328132,279.251625 L82.328132,291.70475 L79.031257,291.70475 Z M96.558593,282.939125 L93.308593,283.51725 C93.2044263,282.871417 92.9544263,282.387042 92.558593,282.064125 C92.1731763,281.730792 91.6731763,281.564125 91.058593,281.564125 C90.2356763,281.564125 89.5794263,281.850583 89.089843,282.4235 C88.6106763,282.986 88.371093,283.928708 88.371093,285.251625 C88.371093,286.730792 88.6158847,287.777667 89.105468,288.39225 C89.605468,288.996417 90.2721347,289.2985 91.105468,289.2985 C91.730468,289.2985 92.2408847,289.121417 92.636718,288.76725 C93.042968,288.413083 93.324218,287.803708 93.480468,286.939125 L96.714843,287.486 C96.3815097,288.965167 95.7356763,290.084958 94.777343,290.845375 C93.8294263,291.605792 92.5533847,291.986 90.949218,291.986 C89.136718,291.986 87.6888013,291.413083 86.605468,290.26725 C85.5221347,289.111 84.980468,287.51725 84.980468,285.486 C84.980468,283.433917 85.5221347,281.834958 86.605468,280.689125 C87.6888013,279.543292 89.1575513,278.970375 91.011718,278.970375 C92.5325513,278.970375 93.7356763,279.2985 94.621093,279.95475 C95.5169263,280.611 96.1627597,281.605792 96.558593,282.939125 Z M104.871093,286.111 L108.246093,285.782875 C108.44401,286.918292 108.85026,287.751625 109.464843,288.282875 C110.089843,288.814125 110.933593,289.07975 111.996093,289.07975 C113.110676,289.07975 113.949218,288.845375 114.511718,288.376625 C115.084635,287.897458 115.371093,287.340167 115.371093,286.70475 C115.371093,286.2985 115.251301,285.95475 115.011718,285.6735 C114.772135,285.39225 114.355468,285.14225 113.761718,284.9235 C113.355468,284.788083 112.428385,284.538083 110.980468,284.1735 C109.126301,283.715167 107.824218,283.152667 107.074218,282.486 C106.011718,281.538083 105.480468,280.381833 105.480468,279.01725 C105.480468,278.14225 105.730468,277.324542 106.230468,276.564125 C106.730468,275.803708 107.44401,275.225583 108.371093,274.82975 C109.308593,274.433917 110.438801,274.236 111.761718,274.236 C113.917968,274.236 115.53776,274.709958 116.621093,275.657875 C117.714843,276.595375 118.28776,277.855792 118.339843,279.439125 L114.871093,279.57975 C114.72526,278.70475 114.407551,278.074542 113.917968,277.689125 C113.428385,277.293292 112.69401,277.095375 111.714843,277.095375 C110.714843,277.095375 109.928385,277.303708 109.355468,277.720375 C108.990885,277.991208 108.808593,278.345375 108.808593,278.782875 C108.808593,279.189125 108.980468,279.538083 109.324218,279.82975 C109.761718,280.194333 110.824218,280.57975 112.511718,280.986 C114.199218,281.381833 115.44401,281.793292 116.246093,282.220375 C117.058593,282.647458 117.69401,283.230792 118.152343,283.970375 C118.610676,284.699542 118.839843,285.611 118.839843,286.70475 C118.839843,287.683917 118.563801,288.605792 118.011718,289.470375 C117.470051,290.324542 116.699218,290.965167 115.699218,291.39225 C114.699218,291.808917 113.449218,292.01725 111.949218,292.01725 C109.782551,292.01725 108.115885,291.51725 106.949218,290.51725 C105.782551,289.506833 105.089843,288.038083 104.871093,286.111 Z M121.722655,277.564125 L121.722655,274.51725 L125.01953,274.51725 L125.01953,277.564125 L121.722655,277.564125 Z M121.722655,291.70475 L121.722655,279.251625 L125.01953,279.251625 L125.01953,291.70475 L121.722655,291.70475 Z M134.109374,279.251625 L134.109374,281.876625 L131.859374,281.876625 L131.859374,286.89225 C131.859374,287.913083 131.880207,288.506833 131.921874,288.6735 C131.963541,288.840167 132.057291,288.980792 132.203124,289.095375 C132.359374,289.199542 132.546874,289.251625 132.765624,289.251625 C133.067707,289.251625 133.510416,289.147458 134.093749,288.939125 L134.374999,291.486 C133.604166,291.819333 132.734374,291.986 131.765624,291.986 C131.171874,291.986 130.635416,291.887042 130.156249,291.689125 C129.687499,291.491208 129.338541,291.236 129.109374,290.9235 C128.890624,290.600583 128.739582,290.168292 128.656249,289.626625 C128.583332,289.241208 128.546874,288.470375 128.546874,287.314125 L128.546874,281.876625 L127.031249,281.876625 L127.031249,279.251625 L128.546874,279.251625 L128.546874,276.782875 L131.859374,274.861 L131.859374,279.251625 L134.109374,279.251625 Z M143.601562,287.736 L146.882812,288.2985 C146.455728,289.496417 145.783853,290.413083 144.867187,291.0485 C143.960937,291.6735 142.82552,291.986 141.460937,291.986 C139.29427,291.986 137.695312,291.277667 136.664062,289.861 C135.841145,288.725583 135.429687,287.2985 135.429687,285.57975 C135.429687,283.51725 135.966145,281.902667 137.039062,280.736 C138.122395,279.558917 139.486978,278.970375 141.132812,278.970375 C142.986978,278.970375 144.445312,279.584958 145.507812,280.814125 C146.580728,282.032875 147.096353,283.902667 147.054687,286.4235 L138.804687,286.4235 C138.82552,287.402667 139.091145,288.163083 139.601562,288.70475 C140.111978,289.246417 140.742187,289.51725 141.492187,289.51725 C142.01302,289.51725 142.445312,289.376625 142.789062,289.095375 C143.143228,288.814125 143.414062,288.361 143.601562,287.736 Z M143.789062,284.407875 C143.757812,283.459958 143.507812,282.741208 143.039062,282.251625 C142.570312,281.751625 142.002603,281.501625 141.335937,281.501625 C140.617187,281.501625 140.023437,281.762042 139.554687,282.282875 C139.085937,282.803708 138.85677,283.512042 138.867187,284.407875 L143.789062,284.407875 Z" id="Shape" fill="#000000" fill-rule="nonzero"></path>
            <path d="M33.73829,320.50476 L33.73829,303.31726 L45.51954,303.31726 L45.51954,306.22351 L37.20704,306.22351 L37.20704,310.301635 L44.378915,310.301635 L44.378915,313.207885 L37.20704,313.207885 L37.20704,320.50476 L33.73829,320.50476 Z M51.507821,320.50476 L48.210946,320.50476 L48.210946,308.051635 L51.273446,308.051635 L51.273446,309.832885 C51.7942793,308.989135 52.2630293,308.437052 52.679696,308.176635 C53.1067793,307.905802 53.585946,307.770385 54.117196,307.770385 C54.867196,307.770385 55.585946,307.978718 56.273446,308.395385 L55.257821,311.270385 C54.7057377,310.905802 54.1901127,310.72351 53.710946,310.72351 C53.2526127,310.72351 52.8619877,310.853718 52.539071,311.114135 C52.2161543,311.364135 51.960946,311.822468 51.773446,312.489135 C51.5963627,313.155802 51.507821,314.546427 51.507821,316.66101 L51.507821,320.50476 Z M60.160165,311.84851 L57.17579,311.31726 C57.5091233,310.108927 58.08204,309.218302 58.89454,308.645385 C59.7174567,308.062052 60.941415,307.770385 62.566415,307.770385 C64.035165,307.770385 65.128915,307.947468 65.847665,308.301635 C66.566415,308.645385 67.0716233,309.088093 67.36329,309.62976 C67.6549567,310.16101 67.80079,311.140177 67.80079,312.56726 L67.76954,316.41101 C67.76954,317.50476 67.8216233,318.312052 67.92579,318.832885 C68.0299567,319.353718 68.2278733,319.91101 68.51954,320.50476 L65.253915,320.50476 C65.1705817,320.28601 65.066415,319.963093 64.941415,319.53601 C64.8893317,319.338093 64.847665,319.207885 64.816415,319.145385 C64.253915,319.687052 63.6497483,320.09851 63.003915,320.37976 C62.3684983,320.650593 61.691415,320.78601 60.972665,320.78601 C59.691415,320.78601 58.6809983,320.437052 57.941415,319.739135 C57.2018317,319.041218 56.83204,318.16101 56.83204,317.09851 C56.83204,316.400593 56.9987067,315.775593 57.33204,315.22351 C57.6653733,314.671427 58.1341233,314.249552 58.73829,313.957885 C59.3528733,313.666218 60.2278733,313.41101 61.36329,313.19226 C62.9049567,312.900593 63.972665,312.62976 64.566415,312.37976 L64.566415,312.051635 C64.566415,311.416218 64.410165,310.968302 64.097665,310.707885 C63.785165,310.437052 63.1966233,310.301635 62.33204,310.301635 C61.73829,310.301635 61.2747483,310.416218 60.941415,310.645385 C60.6184983,310.874552 60.3580817,311.275593 60.160165,311.84851 Z M64.566415,314.520385 C64.1393317,314.666218 63.4674567,314.838093 62.55079,315.03601 C61.64454,315.22351 61.05079,315.41101 60.76954,315.59851 C60.3424567,315.91101 60.128915,316.301635 60.128915,316.770385 C60.128915,317.228718 60.30079,317.624552 60.64454,317.957885 C60.98829,318.291218 61.42579,318.457885 61.95704,318.457885 C62.55079,318.457885 63.11329,318.265177 63.64454,317.87976 C64.05079,317.577677 64.316415,317.213093 64.441415,316.78601 C64.5247483,316.50476 64.566415,315.968302 64.566415,315.176635 L64.566415,314.520385 Z M70.7421962,321.332885 L74.5078212,321.78601 C74.5703212,322.22351 74.7109462,322.525593 74.9296962,322.69226 C75.2421962,322.921427 75.7369879,323.03601 76.4140712,323.03601 C77.2682379,323.03601 77.9140712,322.905802 78.3515712,322.645385 C78.6328212,322.478718 78.8515712,322.202677 79.0078212,321.81726 C79.1015712,321.546427 79.1484462,321.041218 79.1484462,320.301635 L79.1484462,318.489135 C78.1692795,319.832885 76.9296962,320.50476 75.4296962,320.50476 C73.7526129,320.50476 72.4296962,319.796427 71.4609462,318.37976 C70.6901129,317.265177 70.3046962,315.874552 70.3046962,314.207885 C70.3046962,312.124552 70.8046962,310.530802 71.8046962,309.426635 C72.8151129,308.322468 74.0651129,307.770385 75.5546962,307.770385 C77.0963629,307.770385 78.3671962,308.447468 79.3671962,309.801635 L79.3671962,308.051635 L82.4453212,308.051635 L82.4453212,319.22351 C82.4453212,320.69226 82.3255295,321.791218 82.0859462,322.520385 C81.8463629,323.249552 81.5078212,323.81726 81.0703212,324.22351 C80.6328212,324.640177 80.0442795,324.963093 79.3046962,325.19226 C78.5755295,325.431843 77.6536545,325.551635 76.5390712,325.551635 C74.4349045,325.551635 72.9401129,325.19226 72.0546962,324.47351 C71.1692795,323.75476 70.7265712,322.838093 70.7265712,321.72351 C70.7265712,321.619343 70.7317795,321.489135 70.7421962,321.332885 Z M73.6796962,314.020385 C73.6796962,315.343302 73.9349045,316.312052 74.4453212,316.926635 C74.9557379,317.541218 75.5859462,317.84851 76.3359462,317.84851 C77.1484462,317.84851 77.8307379,317.53601 78.3828212,316.91101 C78.9349045,316.275593 79.2109462,315.338093 79.2109462,314.09851 C79.2109462,312.81726 78.9453212,311.864135 78.4140712,311.239135 C77.8828212,310.614135 77.2109462,310.301635 76.3984462,310.301635 C75.6067795,310.301635 74.9557379,310.608927 74.4453212,311.22351 C73.9349045,311.827677 73.6796962,312.759968 73.6796962,314.020385 Z M85.4648452,308.051635 L88.4960952,308.051635 L88.4960952,309.75476 C89.5794285,308.431843 90.8710952,307.770385 92.3710952,307.770385 C93.1731785,307.770385 93.8658869,307.937052 94.4492202,308.270385 C95.0325535,308.593302 95.5117202,309.088093 95.8867202,309.75476 C96.4388035,309.088093 97.0273452,308.593302 97.6523452,308.270385 C98.2877619,307.937052 98.9648452,307.770385 99.6835952,307.770385 C100.600262,307.770385 101.371095,307.957885 101.996095,308.332885 C102.631512,308.707885 103.10547,309.25476 103.41797,309.97351 C103.647137,310.50476 103.76172,311.364135 103.76172,312.551635 L103.76172,320.50476 L100.464845,320.50476 L100.464845,313.395385 C100.464845,312.155802 100.35547,311.358927 100.13672,311.00476 C99.8242202,310.53601 99.3554702,310.301635 98.7304702,310.301635 C98.2617202,310.301635 97.8242202,310.44226 97.4179702,310.72351 C97.0117202,311.00476 96.7200535,311.416218 96.5429702,311.957885 C96.3658869,312.499552 96.2773452,313.353718 96.2773452,314.520385 L96.2773452,320.50476 L92.9804702,320.50476 L92.9804702,313.676635 C92.9804702,312.468302 92.9231785,311.69226 92.8085952,311.34851 C92.6940119,310.994343 92.5117202,310.733927 92.2617202,310.56726 C92.0117202,310.390177 91.6783869,310.301635 91.2617202,310.301635 C90.7513035,310.301635 90.2929702,310.437052 89.8867202,310.707885 C89.4804702,310.978718 89.1888035,311.374552 89.0117202,311.895385 C88.8346369,312.405802 88.7460952,313.259968 88.7460952,314.457885 L88.7460952,320.50476 L85.4648452,320.50476 L85.4648452,308.051635 Z M114.257814,316.53601 L117.539064,317.09851 C117.111981,318.296427 116.440106,319.213093 115.523439,319.84851 C114.617189,320.47351 113.481773,320.78601 112.117189,320.78601 C109.950523,320.78601 108.351564,320.077677 107.320314,318.66101 C106.497398,317.525593 106.085939,316.09851 106.085939,314.37976 C106.085939,312.31726 106.622398,310.702677 107.695314,309.53601 C108.778648,308.358927 110.143231,307.770385 111.789064,307.770385 C113.643231,307.770385 115.101564,308.384968 116.164064,309.614135 C117.236981,310.832885 117.752606,312.702677 117.710939,315.22351 L109.460939,315.22351 C109.481773,316.202677 109.747398,316.963093 110.257814,317.50476 C110.768231,318.046427 111.398439,318.31726 112.148439,318.31726 C112.669273,318.31726 113.101564,318.176635 113.445314,317.895385 C113.799481,317.614135 114.070314,317.16101 114.257814,316.53601 Z M114.445314,313.207885 C114.414064,312.259968 114.164064,311.541218 113.695314,311.051635 C113.226564,310.551635 112.658856,310.301635 111.992189,310.301635 C111.273439,310.301635 110.679689,310.562052 110.210939,311.082885 C109.742189,311.603718 109.513023,312.312052 109.523439,313.207885 L114.445314,313.207885 Z M131.714845,320.50476 L128.41797,320.50476 L128.41797,314.145385 C128.41797,312.801635 128.345054,311.937052 128.19922,311.551635 C128.063804,311.155802 127.834637,310.84851 127.51172,310.62976 C127.19922,310.41101 126.82422,310.301635 126.38672,310.301635 C125.813804,310.301635 125.298179,310.457885 124.839845,310.770385 C124.391929,311.082885 124.084637,311.499552 123.91797,312.020385 C123.751304,312.530802 123.66797,313.478718 123.66797,314.864135 L123.66797,320.50476 L120.371095,320.50476 L120.371095,308.051635 L123.433595,308.051635 L123.433595,309.87976 C124.516929,308.47351 125.881512,307.770385 127.527345,307.770385 C128.256512,307.770385 128.91797,307.905802 129.51172,308.176635 C130.115887,308.437052 130.57422,308.770385 130.88672,309.176635 C131.19922,309.582885 131.412762,310.046427 131.527345,310.56726 C131.652345,311.077677 131.714845,311.812052 131.714845,312.770385 L131.714845,320.50476 Z M140.765626,308.051635 L140.765626,310.676635 L138.515626,310.676635 L138.515626,315.69226 C138.515626,316.713093 138.53646,317.306843 138.578126,317.47351 C138.619793,317.640177 138.713543,317.780802 138.859376,317.895385 C139.015626,317.999552 139.203126,318.051635 139.421876,318.051635 C139.72396,318.051635 140.166668,317.947468 140.750001,317.739135 L141.031251,320.28601 C140.260418,320.619343 139.390626,320.78601 138.421876,320.78601 C137.828126,320.78601 137.291668,320.687052 136.812501,320.489135 C136.343751,320.291218 135.994793,320.03601 135.765626,319.72351 C135.546876,319.400593 135.395835,318.968302 135.312501,318.426635 C135.239585,318.041218 135.203126,317.270385 135.203126,316.114135 L135.203126,310.676635 L133.687501,310.676635 L133.687501,308.051635 L135.203126,308.051635 L135.203126,305.582885 L138.515626,303.66101 L138.515626,308.051635 L140.765626,308.051635 Z M141.882814,316.957885 L145.195314,316.44226 C145.33073,317.088093 145.61198,317.577677 146.039064,317.91101 C146.476564,318.244343 147.08073,318.41101 147.851564,318.41101 C148.70573,318.41101 149.346355,318.25476 149.773439,317.94226 C150.065105,317.72351 150.210939,317.426635 150.210939,317.051635 C150.210939,316.801635 150.132814,316.59851 149.976564,316.44226 C149.809897,316.28601 149.440105,316.140177 148.867189,316.00476 C146.210939,315.421427 144.528647,314.884968 143.820314,314.395385 C142.83073,313.728718 142.335939,312.796427 142.335939,311.59851 C142.335939,310.515177 142.763022,309.608927 143.617189,308.87976 C144.471355,308.140177 145.794272,307.770385 147.585939,307.770385 C149.283855,307.770385 150.544272,308.051635 151.367189,308.614135 C152.200522,309.166218 152.773439,309.983927 153.085939,311.06726 L149.976564,311.645385 C149.851564,311.155802 149.601564,310.78601 149.226564,310.53601 C148.851564,310.275593 148.320314,310.145385 147.632814,310.145385 C146.76823,310.145385 146.148439,310.265177 145.773439,310.50476 C145.523439,310.681843 145.398439,310.905802 145.398439,311.176635 C145.398439,311.405802 145.507814,311.603718 145.726564,311.770385 C146.028647,311.989135 147.054689,312.301635 148.804689,312.707885 C150.554689,313.103718 151.778647,313.588093 152.476564,314.16101 C153.164064,314.744343 153.507814,315.562052 153.507814,316.614135 C153.507814,317.749552 153.028647,318.728718 152.070314,319.551635 C151.122397,320.374552 149.716147,320.78601 147.851564,320.78601 C146.153647,320.78601 144.809897,320.44226 143.820314,319.75476 C142.83073,319.06726 142.184897,318.134968 141.882814,316.957885 Z" id="Shape" fill="#000000" fill-rule="nonzero"></path>
        </g>
    </g>
</svg>