<?xml version="1.0" encoding="UTF-8"?>
<svg width="64px" height="64px" viewBox="0 0 64 64" version="1.1" xmlns="http://www.w3.org/2000/svg" xmlns:xlink="http://www.w3.org/1999/xlink">
    <title>Seemingly Seamless on GitHub</title>
    <desc>https://github.com/thegymnasium/seemingly-seamless</desc>
    <g id="qr-code-seemingly-seamless" stroke="none" stroke-width="1" fill="none" fill-rule="evenodd">
        <g id="Group-312" fill="#231F20">
            <polygon id="Fill-1" points="0 5.8178418 1.9392806 5.8178418 1.9392806 0 0 0"></polygon>
            <polygon id="Fill-2" points="0 13.5758992 1.9392806 13.5758992 1.9392806 5.81877685 0 5.81877685"></polygon>
            <polygon id="Fill-3" points="0 17.4544605 1.9392806 17.4544605 1.9392806 15.5151798 0 15.5151798"></polygon>
            <polygon id="Fill-4" points="0 21.3339567 1.9392806 21.3339567 1.9392806 19.3946761 0 19.3946761"></polygon>
            <polygon id="Fill-5" points="0 27.1517985 1.9392806 27.1517985 1.9392806 25.2125179 0 25.2125179"></polygon>
            <polygon id="Fill-6" points="0 34.9089209 1.9392806 34.9089209 1.9392806 31.0303597 0 31.0303597"></polygon>
            <polygon id="Fill-7" points="0 40.7276977 1.9392806 40.7276977 1.9392806 38.7884171 0 38.7884171"></polygon>
            <polygon id="Fill-8" points="0 44.6062589 1.9392806 44.6062589 1.9392806 42.6669783 0 42.6669783"></polygon>
            <polygon id="Fill-9" points="0 48.4848202 1.9392806 48.4848202 1.9392806 46.5455395 0 46.5455395"></polygon>
            <polygon id="Fill-10" points="0 60.1223738 1.9392806 60.1223738 1.9392806 50.4250358 0 50.4250358"></polygon>
            <polygon id="Fill-11" points="0 64 1.9392806 64 1.9392806 60.1214388 0 60.1214388"></polygon>
            <polygon id="Fill-12" points="1.94021564 1.9392806 3.87949625 1.9392806 3.87949625 0 1.94021564 0"></polygon>
            <polygon id="Fill-13" points="1.94021564 13.5758992 3.87949625 13.5758992 3.87949625 11.6366186 1.94021564 11.6366186"></polygon>
            <polygon id="Fill-14" points="1.94021564 25.2125179 3.87949625 25.2125179 3.87949625 19.3946761 1.94021564 19.3946761"></polygon>
            <polygon id="Fill-15" points="1.94021564 32.9696403 3.87949625 32.9696403 3.87949625 29.0910791 1.94021564 29.0910791"></polygon>
            <polygon id="Fill-16" points="1.94021564 40.7276977 3.87949625 40.7276977 3.87949625 38.7884171 1.94021564 38.7884171"></polygon>
            <polygon id="Fill-17" points="1.94021564 46.5455395 3.87949625 46.5455395 3.87949625 42.6669783 1.94021564 42.6669783"></polygon>
            <polygon id="Fill-18" points="1.94021564 52.3643164 3.87949625 52.3643164 3.87949625 50.4250358 1.94021564 50.4250358"></polygon>
            <polygon id="Fill-19" points="1.94021564 64 3.87949625 64 3.87949625 62.0607194 1.94021564 62.0607194"></polygon>
            <polygon id="Fill-20" points="3.87949625 1.9392806 5.81877685 1.9392806 5.81877685 0 3.87949625 0"></polygon>
            <polygon id="Fill-21" points="3.87949625 5.81877685 5.81877685 5.81877685 5.81877685 3.87949625 3.87949625 3.87949625"></polygon>
            <polygon id="Fill-22" points="3.87949625 9.69733805 5.81877685 9.69733805 5.81877685 5.81877685 3.87949625 5.81877685"></polygon>
            <polygon id="Fill-23" points="3.87949625 13.5758992 5.81877685 13.5758992 5.81877685 11.6366186 3.87949625 11.6366186"></polygon>
            <polygon id="Fill-24" points="3.87949625 19.3946761 5.81877685 19.3946761 5.81877685 17.4553955 3.87949625 17.4553955"></polygon>
            <polygon id="Fill-25" points="3.87949625 25.2125179 5.81877685 25.2125179 5.81877685 21.3339567 3.87949625 21.3339567"></polygon>
            <polygon id="Fill-26" points="3.87949625 32.9696403 5.81877685 32.9696403 5.81877685 27.1517985 3.87949625 27.1517985"></polygon>
            <polygon id="Fill-27" points="3.87949625 38.7884171 5.81877685 38.7884171 5.81877685 34.9098559 3.87949625 34.9098559"></polygon>
            <polygon id="Fill-28" points="3.87949625 44.6062589 5.81877685 44.6062589 5.81877685 42.6669783 3.87949625 42.6669783"></polygon>
            <polygon id="Fill-29" points="3.87949625 52.3643164 5.81877685 52.3643164 5.81877685 50.4250358 3.87949625 50.4250358"></polygon>
            <polygon id="Fill-30" points="3.87949625 60.1214388 5.81877685 60.1214388 5.81877685 54.303597 3.87949625 54.303597"></polygon>
            <polygon id="Fill-31" points="3.87949625 64 5.81877685 64 5.81877685 62.0607194 3.87949625 62.0607194"></polygon>
            <polygon id="Fill-32" points="5.81877685 1.9392806 7.75805745 1.9392806 7.75805745 0 5.81877685 0"></polygon>
            <polygon id="Fill-33" points="5.81877685 5.81877685 7.75805745 5.81877685 7.75805745 3.87949625 5.81877685 3.87949625"></polygon>
            <polygon id="Fill-34" points="5.81877685 9.69733805 7.75805745 9.69733805 7.75805745 5.81877685 5.81877685 5.81877685"></polygon>
            <polygon id="Fill-35" points="5.81877685 13.5758992 7.75805745 13.5758992 7.75805745 11.6366186 5.81877685 11.6366186"></polygon>
            <polygon id="Fill-36" points="5.81877685 17.4544605 7.75805745 17.4544605 7.75805745 15.5151798 5.81877685 15.5151798"></polygon>
            <polygon id="Fill-37" points="5.81877685 27.1517985 7.75805745 27.1517985 7.75805745 23.2732373 5.81877685 23.2732373"></polygon>
            <polygon id="Fill-38" points="5.81877685 40.7276977 7.75805745 40.7276977 7.75805745 31.0303597 5.81877685 31.0303597"></polygon>
            <polygon id="Fill-39" points="5.81877685 48.4848202 7.75805745 48.4848202 7.75805745 44.6062589 5.81877685 44.6062589"></polygon>
            <polygon id="Fill-40" points="5.81877685 52.3643164 7.75805745 52.3643164 7.75805745 50.4250358 5.81877685 50.4250358"></polygon>
            <polygon id="Fill-41" points="5.81877685 60.1214388 7.75805745 60.1214388 7.75805745 54.303597 5.81877685 54.303597"></polygon>
            <polygon id="Fill-42" points="5.81877685 64 7.75805745 64 7.75805745 62.0607194 5.81877685 62.0607194"></polygon>
            <polygon id="Fill-43" points="7.75805745 1.9392806 9.69733805 1.9392806 9.69733805 0 7.75805745 0"></polygon>
            <polygon id="Fill-44" points="7.75805745 5.81877685 9.69733805 5.81877685 9.69733805 3.87949625 7.75805745 3.87949625"></polygon>
            <polygon id="Fill-45" points="7.75805745 9.69733805 9.69733805 9.69733805 9.69733805 5.81877685 7.75805745 5.81877685"></polygon>
            <polygon id="Fill-46" points="7.75805745 13.5758992 9.69733805 13.5758992 9.69733805 11.6366186 7.75805745 11.6366186"></polygon>
            <polygon id="Fill-47" points="7.75805745 27.1517985 9.69733805 27.1517985 9.69733805 21.3339567 7.75805745 21.3339567"></polygon>
            <polygon id="Fill-48" points="7.75805745 36.8482015 9.69733805 36.8482015 9.69733805 29.0910791 7.75805745 29.0910791"></polygon>
            <polygon id="Fill-49" points="7.75805745 42.6669783 9.69733805 42.6669783 9.69733805 40.7276977 7.75805745 40.7276977"></polygon>
            <polygon id="Fill-50" points="7.75805745 44.6062589 9.69733805 44.6062589 9.69733805 42.6669783 7.75805745 42.6669783"></polygon>
            <polygon id="Fill-51" points="7.75805745 52.3643164 9.69733805 52.3643164 9.69733805 50.4250358 7.75805745 50.4250358"></polygon>
            <polygon id="Fill-52" points="7.75805745 60.1214388 9.69733805 60.1214388 9.69733805 54.303597 7.75805745 54.303597"></polygon>
            <polygon id="Fill-53" points="7.75805745 64 9.69733805 64 9.69733805 62.0607194 7.75805745 62.0607194"></polygon>
            <polygon id="Fill-54" points="9.69733805 1.9392806 11.6366186 1.9392806 11.6366186 0 9.69733805 0"></polygon>
            <polygon id="Fill-55" points="9.69733805 13.5758992 11.6366186 13.5758992 11.6366186 11.6366186 9.69733805 11.6366186"></polygon>
            <polygon id="Fill-56" points="9.69733805 17.4544605 11.6366186 17.4544605 11.6366186 15.5151798 9.69733805 15.5151798"></polygon>
            <polygon id="Fill-57" points="9.69733805 23.2732373 11.6366186 23.2732373 11.6366186 21.3339567 9.69733805 21.3339567"></polygon>
            <polygon id="Fill-58" points="9.69733805 27.1517985 11.6366186 27.1517985 11.6366186 25.2125179 9.69733805 25.2125179"></polygon>
            <polygon id="Fill-59" points="9.69733805 31.0303597 11.6366186 31.0303597 11.6366186 29.0910791 9.69733805 29.0910791"></polygon>
            <polygon id="Fill-60" points="9.69733805 38.7884171 11.6366186 38.7884171 11.6366186 34.9098559 9.69733805 34.9098559"></polygon>
            <polygon id="Fill-61" points="9.69733805 42.6669783 11.6366186 42.6669783 11.6366186 40.7276977 9.69733805 40.7276977"></polygon>
            <polygon id="Fill-62" points="9.69733805 48.4848202 11.6366186 48.4848202 11.6366186 44.6062589 9.69733805 44.6062589"></polygon>
            <polygon id="Fill-63" points="9.69733805 52.3643164 11.6366186 52.3643164 11.6366186 50.4250358 9.69733805 50.4250358"></polygon>
            <polygon id="Fill-64" points="9.69733805 64 11.6366186 64 11.6366186 62.0607194 9.69733805 62.0607194"></polygon>
            <polygon id="Fill-65" points="11.6366186 5.8178418 13.5758992 5.8178418 13.5758992 0 11.6366186 0"></polygon>
            <polygon id="Fill-66" points="11.6366186 13.5758992 13.5758992 13.5758992 13.5758992 5.81877685 11.6366186 5.81877685"></polygon>
            <polygon id="Fill-67" points="11.6366186 17.4544605 13.5758992 17.4544605 13.5758992 15.5151798 11.6366186 15.5151798"></polygon>
            <polygon id="Fill-68" points="11.6366186 21.3339567 13.5758992 21.3339567 13.5758992 19.3946761 11.6366186 19.3946761"></polygon>
            <polygon id="Fill-69" points="11.6366186 25.2125179 13.5758992 25.2125179 13.5758992 23.2732373 11.6366186 23.2732373"></polygon>
            <polygon id="Fill-70" points="11.6366186 29.0910791 13.5758992 29.0910791 13.5758992 27.1517985 11.6366186 27.1517985"></polygon>
            <polygon id="Fill-71" points="11.6366186 32.9696403 13.5758992 32.9696403 13.5758992 31.0303597 11.6366186 31.0303597"></polygon>
            <polygon id="Fill-72" points="11.6366186 36.8491365 13.5758992 36.8491365 13.5758992 34.9098559 11.6366186 34.9098559"></polygon>
            <polygon id="Fill-73" points="11.6366186 40.7276977 13.5758992 40.7276977 13.5758992 38.7884171 11.6366186 38.7884171"></polygon>
            <polygon id="Fill-74" points="11.6366186 44.6062589 13.5758992 44.6062589 13.5758992 42.6669783 11.6366186 42.6669783"></polygon>
            <polygon id="Fill-75" points="11.6366186 48.4848202 13.5758992 48.4848202 13.5758992 46.5455395 11.6366186 46.5455395"></polygon>
            <polygon id="Fill-76" points="11.6366186 60.1223738 13.5758992 60.1223738 13.5758992 50.4250358 11.6366186 50.4250358"></polygon>
            <polygon id="Fill-77" points="11.6366186 64 13.5758992 64 13.5758992 60.1214388 11.6366186 60.1214388"></polygon>
            <polygon id="Fill-78" points="13.5758992 23.2732373 15.5151798 23.2732373 15.5151798 17.4553955 13.5758992 17.4553955"></polygon>
            <polygon id="Fill-79" points="13.5758992 31.0303597 15.5151798 31.0303597 15.5151798 25.2125179 13.5758992 25.2125179"></polygon>
            <polygon id="Fill-80" points="13.5758992 36.8491365 15.5151798 36.8491365 15.5151798 34.9098559 13.5758992 34.9098559"></polygon>
            <polygon id="Fill-81" points="13.5758992 42.6669783 15.5151798 42.6669783 15.5151798 40.7276977 13.5758992 40.7276977"></polygon>
            <polygon id="Fill-82" points="13.5758992 46.5455395 15.5151798 46.5455395 15.5151798 44.6062589 13.5758992 44.6062589"></polygon>
            <polygon id="Fill-83" points="15.5151798 13.5758992 17.4544605 13.5758992 17.4544605 9.69733805 15.5151798 9.69733805"></polygon>
            <polygon id="Fill-84" points="15.5151798 17.4544605 17.4544605 17.4544605 17.4544605 15.5151798 15.5151798 15.5151798"></polygon>
            <polygon id="Fill-85" points="15.5151798 32.9705753 17.4544605 32.9705753 17.4544605 19.3946761 15.5151798 19.3946761"></polygon>
            <polygon id="Fill-86" points="15.5151798 36.8491365 17.4544605 36.8491365 17.4544605 34.9098559 15.5151798 34.9098559"></polygon>
            <polygon id="Fill-87" points="15.5151798 42.6669783 17.4544605 42.6669783 17.4544605 40.7276977 15.5151798 40.7276977"></polygon>
            <polygon id="Fill-88" points="15.5151798 50.4241008 17.4544605 50.4241008 17.4544605 46.5455395 15.5151798 46.5455395"></polygon>
            <polygon id="Fill-89" points="15.5151798 54.303597 17.4544605 54.303597 17.4544605 52.3643164 15.5151798 52.3643164"></polygon>
            <polygon id="Fill-90" points="15.5151798 58.1821582 17.4544605 58.1821582 17.4544605 56.2428776 15.5151798 56.2428776"></polygon>
            <polygon id="Fill-91" points="15.5151798 64 17.4544605 64 17.4544605 62.0607194 15.5151798 62.0607194"></polygon>
            <polygon id="Fill-92" points="17.4553955 5.81877685 19.3946761 5.81877685 19.3946761 1.94021564 17.4553955 1.94021564"></polygon>
            <polygon id="Fill-93" points="17.4553955 11.6366186 19.3946761 11.6366186 19.3946761 7.75805745 17.4553955 7.75805745"></polygon>
            <polygon id="Fill-94" points="17.4553955 15.5151798 19.3946761 15.5151798 19.3946761 13.5758992 17.4553955 13.5758992"></polygon>
            <polygon id="Fill-95" points="17.4553955 21.3339567 19.3946761 21.3339567 19.3946761 19.3946761 17.4553955 19.3946761"></polygon>
            <polygon id="Fill-96" points="17.4553955 29.0910791 19.3946761 29.0910791 19.3946761 23.2732373 17.4553955 23.2732373"></polygon>
            <polygon id="Fill-97" points="17.4553955 42.6669783 19.3946761 42.6669783 19.3946761 38.7884171 17.4553955 38.7884171"></polygon>
            <polygon id="Fill-98" points="17.4553955 50.4250358 19.3946761 50.4250358 19.3946761 48.4857552 17.4553955 48.4857552"></polygon>
            <polygon id="Fill-99" points="17.4553955 52.3643164 19.3946761 52.3643164 19.3946761 50.4250358 17.4553955 50.4250358"></polygon>
            <polygon id="Fill-100" points="17.4553955 60.1214388 19.3946761 60.1214388 19.3946761 58.1821582 17.4553955 58.1821582"></polygon>
            <polygon id="Fill-101" points="17.4553955 62.0607194 19.3946761 62.0607194 19.3946761 60.1214388 17.4553955 60.1214388"></polygon>
            <polygon id="Fill-102" points="19.3946761 5.8178418 21.3339567 5.8178418 21.3339567 0 19.3946761 0"></polygon>
            <polygon id="Fill-103" points="19.3946761 13.5758992 21.3339567 13.5758992 21.3339567 11.6366186 19.3946761 11.6366186"></polygon>
            <polygon id="Fill-104" points="19.3946761 21.3339567 21.3339567 21.3339567 21.3339567 17.4553955 19.3946761 17.4553955"></polygon>
            <polygon id="Fill-105" points="19.3946761 29.0910791 21.3339567 29.0910791 21.3339567 27.1517985 19.3946761 27.1517985"></polygon>
            <polygon id="Fill-106" points="19.3946761 36.8491365 21.3339567 36.8491365 21.3339567 32.9705753 19.3946761 32.9705753"></polygon>
            <polygon id="Fill-107" points="19.3946761 48.4848202 21.3339567 48.4848202 21.3339567 44.6062589 19.3946761 44.6062589"></polygon>
            <polygon id="Fill-108" points="19.3946761 60.1223738 21.3339567 60.1223738 21.3339567 50.4250358 19.3946761 50.4250358"></polygon>
            <polygon id="Fill-109" points="19.3946761 64 21.3339567 64 21.3339567 60.1214388 19.3946761 60.1214388"></polygon>
            <polygon id="Fill-110" points="21.3339567 1.9392806 23.2732373 1.9392806 23.2732373 0 21.3339567 0"></polygon>
            <polygon id="Fill-111" points="21.3339567 5.81877685 23.2732373 5.81877685 23.2732373 3.87949625 21.3339567 3.87949625"></polygon>
            <polygon id="Fill-112" points="21.3339567 25.2125179 23.2732373 25.2125179 23.2732373 19.3946761 21.3339567 19.3946761"></polygon>
            <polygon id="Fill-113" points="21.3339567 29.0910791 23.2732373 29.0910791 23.2732373 27.1517985 21.3339567 27.1517985"></polygon>
            <polygon id="Fill-114" points="21.3339567 34.9089209 23.2732373 34.9089209 23.2732373 31.0303597 21.3339567 31.0303597"></polygon>
            <polygon id="Fill-115" points="21.3339567 38.7884171 23.2732373 38.7884171 23.2732373 36.8491365 21.3339567 36.8491365"></polygon>
            <polygon id="Fill-116" points="21.3339567 48.4848202 23.2732373 48.4848202 23.2732373 42.6669783 21.3339567 42.6669783"></polygon>
            <polygon id="Fill-117" points="21.3339567 54.303597 23.2732373 54.303597 23.2732373 50.4250358 21.3339567 50.4250358"></polygon>
            <polygon id="Fill-118" points="21.3339567 62.0607194 23.2732373 62.0607194 23.2732373 60.1214388 21.3339567 60.1214388"></polygon>
            <polygon id="Fill-119" points="23.2732373 5.81877685 25.2125179 5.81877685 25.2125179 3.87949625 23.2732373 3.87949625"></polygon>
            <polygon id="Fill-120" points="23.2732373 7.75805745 25.2125179 7.75805745 25.2125179 5.81877685 23.2732373 5.81877685"></polygon>
            <polygon id="Fill-121" points="23.2732373 17.4544605 25.2125179 17.4544605 25.2125179 11.6366186 23.2732373 11.6366186"></polygon>
            <polygon id="Fill-122" points="23.2732373 23.2732373 25.2125179 23.2732373 25.2125179 21.3339567 23.2732373 21.3339567"></polygon>
            <polygon id="Fill-123" points="23.2732373 29.0910791 25.2125179 29.0910791 25.2125179 27.1517985 23.2732373 27.1517985"></polygon>
            <polygon id="Fill-124" points="23.2732373 36.8491365 25.2125179 36.8491365 25.2125179 32.9705753 23.2732373 32.9705753"></polygon>
            <polygon id="Fill-125" points="23.2732373 50.4241008 25.2125179 50.4241008 25.2125179 46.5455395 23.2732373 46.5455395"></polygon>
            <polygon id="Fill-126" points="23.2732373 52.3643164 25.2125179 52.3643164 25.2125179 50.4250358 23.2732373 50.4250358"></polygon>
            <polygon id="Fill-127" points="23.2732373 60.1214388 25.2125179 60.1214388 25.2125179 58.1821582 23.2732373 58.1821582"></polygon>
            <polygon id="Fill-128" points="23.2732373 62.0607194 25.2125179 62.0607194 25.2125179 60.1214388 23.2732373 60.1214388"></polygon>
            <polygon id="Fill-129" points="25.2125179 5.8178418 27.1517985 5.8178418 27.1517985 0 25.2125179 0"></polygon>
            <polygon id="Fill-130" points="25.2125179 11.6366186 27.1517985 11.6366186 27.1517985 5.81877685 25.2125179 5.81877685"></polygon>
            <polygon id="Fill-131" points="25.2125179 23.2723023 27.1517985 23.2723023 27.1517985 15.5151798 25.2125179 15.5151798"></polygon>
            <polygon id="Fill-132" points="25.2125179 27.1517985 27.1517985 27.1517985 27.1517985 25.2125179 25.2125179 25.2125179"></polygon>
            <polygon id="Fill-133" points="25.2125179 38.7874821 27.1517985 38.7874821 27.1517985 31.0303597 25.2125179 31.0303597"></polygon>
            <polygon id="Fill-134" points="25.2125179 58.1821582 27.1517985 58.1821582 27.1517985 56.2428776 25.2125179 56.2428776"></polygon>
            <polygon id="Fill-135" points="25.2125179 64 27.1517985 64 27.1517985 60.1214388 25.2125179 60.1214388"></polygon>
            <polygon id="Fill-136" points="27.1517985 3.87949625 29.0910791 3.87949625 29.0910791 1.94021564 27.1517985 1.94021564"></polygon>
            <polygon id="Fill-137" points="27.1517985 9.69733805 29.0910791 9.69733805 29.0910791 5.81877685 27.1517985 5.81877685"></polygon>
            <polygon id="Fill-138" points="27.1517985 17.4544605 29.0910791 17.4544605 29.0910791 11.6366186 27.1517985 11.6366186"></polygon>
            <polygon id="Fill-139" points="27.1517985 21.3339567 29.0910791 21.3339567 29.0910791 19.3946761 27.1517985 19.3946761"></polygon>
            <polygon id="Fill-140" points="27.1517985 27.1517985 29.0910791 27.1517985 29.0910791 23.2732373 27.1517985 23.2732373"></polygon>
            <polygon id="Fill-141" points="27.1517985 34.9089209 29.0910791 34.9089209 29.0910791 31.0303597 27.1517985 31.0303597"></polygon>
            <polygon id="Fill-142" points="27.1517985 40.7276977 29.0910791 40.7276977 29.0910791 38.7884171 27.1517985 38.7884171"></polygon>
            <polygon id="Fill-143" points="27.1517985 46.5455395 29.0910791 46.5455395 29.0910791 42.6669783 27.1517985 42.6669783"></polygon>
            <polygon id="Fill-144" points="27.1517985 58.1830932 29.0910791 58.1830932 29.0910791 50.4250358 27.1517985 50.4250358"></polygon>
            <polygon id="Fill-145" points="27.1517985 62.0607194 29.0910791 62.0607194 29.0910791 60.1214388 27.1517985 60.1214388"></polygon>
            <polygon id="Fill-146" points="29.0910791 3.8785612 31.0303597 3.8785612 31.0303597 0 29.0910791 0"></polygon>
            <polygon id="Fill-147" points="29.0910791 11.6366186 31.0303597 11.6366186 31.0303597 9.69733805 29.0910791 9.69733805"></polygon>
            <polygon id="Fill-148" points="29.0910791 15.5151798 31.0303597 15.5151798 31.0303597 13.5758992 29.0910791 13.5758992"></polygon>
            <polygon id="Fill-149" points="29.0910791 29.0910791 31.0303597 29.0910791 31.0303597 25.2125179 29.0910791 25.2125179"></polygon>
            <polygon id="Fill-150" points="29.0910791 32.9696403 31.0303597 32.9696403 31.0303597 31.0303597 29.0910791 31.0303597"></polygon>
            <polygon id="Fill-151" points="29.0910791 38.7884171 31.0303597 38.7884171 31.0303597 36.8491365 29.0910791 36.8491365"></polygon>
            <polygon id="Fill-152" points="29.0910791 42.6669783 31.0303597 42.6669783 31.0303597 40.7276977 29.0910791 40.7276977"></polygon>
            <polygon id="Fill-153" points="29.0910791 46.5455395 31.0303597 46.5455395 31.0303597 44.6062589 29.0910791 44.6062589"></polygon>
            <polygon id="Fill-154" points="29.0910791 60.1214388 31.0303597 60.1214388 31.0303597 54.303597 29.0910791 54.303597"></polygon>
            <polygon id="Fill-155" points="29.0910791 64 31.0303597 64 31.0303597 62.0607194 29.0910791 62.0607194"></polygon>
            <polygon id="Fill-156" points="31.0303597 5.81877685 32.9696403 5.81877685 32.9696403 3.87949625 31.0303597 3.87949625"></polygon>
            <polygon id="Fill-157" points="31.0303597 7.75805745 32.9696403 7.75805745 32.9696403 5.81877685 31.0303597 5.81877685"></polygon>
            <polygon id="Fill-158" points="31.0303597 21.3339567 32.9696403 21.3339567 32.9696403 9.69733805 31.0303597 9.69733805"></polygon>
            <polygon id="Fill-159" points="31.0303597 25.2125179 32.9696403 25.2125179 32.9696403 23.2732373 31.0303597 23.2732373"></polygon>
            <polygon id="Fill-160" points="31.0303597 34.9098559 32.9696403 34.9098559 32.9696403 27.1517985 31.0303597 27.1517985"></polygon>
            <polygon id="Fill-161" points="31.0303597 38.7884171 32.9696403 38.7884171 32.9696403 36.8491365 31.0303597 36.8491365"></polygon>
            <polygon id="Fill-162" points="31.0303597 44.6062589 32.9696403 44.6062589 32.9696403 42.6669783 31.0303597 42.6669783"></polygon>
            <polygon id="Fill-163" points="31.0303597 48.4848202 32.9696403 48.4848202 32.9696403 46.5455395 31.0303597 46.5455395"></polygon>
            <polygon id="Fill-164" points="31.0303597 54.303597 32.9696403 54.303597 32.9696403 50.4250358 31.0303597 50.4250358"></polygon>
            <polygon id="Fill-165" points="31.0303597 60.1214388 32.9696403 60.1214388 32.9696403 56.2428776 31.0303597 56.2428776"></polygon>
            <polygon id="Fill-166" points="31.0303597 64 32.9696403 64 32.9696403 62.0607194 31.0303597 62.0607194"></polygon>
            <polygon id="Fill-167" points="32.9705753 1.9392806 34.9098559 1.9392806 34.9098559 0 32.9705753 0"></polygon>
            <polygon id="Fill-168" points="32.9705753 7.75805745 34.9098559 7.75805745 34.9098559 5.81877685 32.9705753 5.81877685"></polygon>
            <polygon id="Fill-169" points="32.9705753 15.5151798 34.9098559 15.5151798 34.9098559 13.5758992 32.9705753 13.5758992"></polygon>
            <polygon id="Fill-170" points="32.9705753 19.3946761 34.9098559 19.3946761 34.9098559 17.4553955 32.9705753 17.4553955"></polygon>
            <polygon id="Fill-171" points="32.9705753 27.1517985 34.9098559 27.1517985 34.9098559 25.2125179 32.9705753 25.2125179"></polygon>
            <polygon id="Fill-172" points="32.9705753 36.8482015 34.9098559 36.8482015 34.9098559 29.0910791 32.9705753 29.0910791"></polygon>
            <polygon id="Fill-173" points="32.9705753 40.7276977 34.9098559 40.7276977 34.9098559 38.7884171 32.9705753 38.7884171"></polygon>
            <polygon id="Fill-174" points="32.9705753 50.4241008 34.9098559 50.4241008 34.9098559 46.5455395 32.9705753 46.5455395"></polygon>
            <polygon id="Fill-175" points="32.9705753 54.303597 34.9098559 54.303597 34.9098559 50.4250358 32.9705753 50.4250358"></polygon>
            <polygon id="Fill-176" points="32.9705753 58.1821582 34.9098559 58.1821582 34.9098559 56.2428776 32.9705753 56.2428776"></polygon>
            <polygon id="Fill-177" points="32.9705753 62.0607194 34.9098559 62.0607194 34.9098559 60.1214388 32.9705753 60.1214388"></polygon>
            <polygon id="Fill-178" points="34.9098559 5.8178418 36.8491365 5.8178418 36.8491365 0 34.9098559 0"></polygon>
            <polygon id="Fill-179" points="34.9098559 15.5161149 36.8491365 15.5161149 36.8491365 5.81877685 34.9098559 5.81877685"></polygon>
            <polygon id="Fill-180" points="34.9098559 27.1517985 36.8491365 27.1517985 36.8491365 19.3946761 34.9098559 19.3946761"></polygon>
            <polygon id="Fill-181" points="34.9098559 31.0303597 36.8491365 31.0303597 36.8491365 29.0910791 34.9098559 29.0910791"></polygon>
            <polygon id="Fill-182" points="34.9098559 34.9098559 36.8491365 34.9098559 36.8491365 32.9705753 34.9098559 32.9705753"></polygon>
            <polygon id="Fill-183" points="34.9098559 46.5455395 36.8491365 46.5455395 36.8491365 42.6669783 34.9098559 42.6669783"></polygon>
            <polygon id="Fill-184" points="34.9098559 58.1830932 36.8491365 58.1830932 36.8491365 50.4250358 34.9098559 50.4250358"></polygon>
            <polygon id="Fill-185" points="34.9098559 62.0607194 36.8491365 62.0607194 36.8491365 60.1214388 34.9098559 60.1214388"></polygon>
            <polygon id="Fill-186" points="36.8491365 1.9392806 38.7884171 1.9392806 38.7884171 0 36.8491365 0"></polygon>
            <polygon id="Fill-187" points="36.8491365 11.6366186 38.7884171 11.6366186 38.7884171 7.75805745 36.8491365 7.75805745"></polygon>
            <polygon id="Fill-188" points="36.8491365 23.2732373 38.7884171 23.2732373 38.7884171 19.3946761 36.8491365 19.3946761"></polygon>
            <polygon id="Fill-189" points="36.8491365 29.0910791 38.7884171 29.0910791 38.7884171 27.1517985 36.8491365 27.1517985"></polygon>
            <polygon id="Fill-190" points="36.8491365 42.6669783 38.7884171 42.6669783 38.7884171 36.8491365 36.8491365 36.8491365"></polygon>
            <polygon id="Fill-191" points="36.8491365 44.6062589 38.7884171 44.6062589 38.7884171 42.6669783 36.8491365 42.6669783"></polygon>
            <polygon id="Fill-192" points="36.8491365 50.4250358 38.7884171 50.4250358 38.7884171 48.4857552 36.8491365 48.4857552"></polygon>
            <polygon id="Fill-193" points="36.8491365 54.303597 38.7884171 54.303597 38.7884171 52.3643164 36.8491365 52.3643164"></polygon>
            <polygon id="Fill-194" points="36.8491365 62.0607194 38.7884171 62.0607194 38.7884171 60.1214388 36.8491365 60.1214388"></polygon>
            <polygon id="Fill-195" points="38.7884171 9.69733805 40.7276977 9.69733805 40.7276977 5.81877685 38.7884171 5.81877685"></polygon>
            <polygon id="Fill-196" points="38.7884171 13.5758992 40.7276977 13.5758992 40.7276977 11.6366186 38.7884171 11.6366186"></polygon>
            <polygon id="Fill-197" points="38.7884171 21.3339567 40.7276977 21.3339567 40.7276977 17.4553955 38.7884171 17.4553955"></polygon>
            <polygon id="Fill-198" points="38.7884171 27.1517985 40.7276977 27.1517985 40.7276977 23.2732373 38.7884171 23.2732373"></polygon>
            <polygon id="Fill-199" points="38.7884171 31.0303597 40.7276977 31.0303597 40.7276977 29.0910791 38.7884171 29.0910791"></polygon>
            <polygon id="Fill-200" points="38.7884171 38.7884171 40.7276977 38.7884171 40.7276977 36.8491365 38.7884171 36.8491365"></polygon>
            <polygon id="Fill-201" points="38.7884171 48.4848202 40.7276977 48.4848202 40.7276977 44.6062589 38.7884171 44.6062589"></polygon>
            <polygon id="Fill-202" points="38.7884171 54.303597 40.7276977 54.303597 40.7276977 50.4250358 38.7884171 50.4250358"></polygon>
            <polygon id="Fill-203" points="40.7276977 3.87949625 42.6669783 3.87949625 42.6669783 1.94021564 40.7276977 1.94021564"></polygon>
            <polygon id="Fill-204" points="40.7276977 17.4544605 42.6669783 17.4544605 42.6669783 13.5758992 40.7276977 13.5758992"></polygon>
            <polygon id="Fill-205" points="40.7276977 25.2125179 42.6669783 25.2125179 42.6669783 21.3339567 40.7276977 21.3339567"></polygon>
            <polygon id="Fill-206" points="40.7276977 32.9696403 42.6669783 32.9696403 42.6669783 27.1517985 40.7276977 27.1517985"></polygon>
            <polygon id="Fill-207" points="40.7276977 42.6669783 42.6669783 42.6669783 42.6669783 36.8491365 40.7276977 36.8491365"></polygon>
            <polygon id="Fill-208" points="40.7276977 50.4241008 42.6669783 50.4241008 42.6669783 42.6669783 40.7276977 42.6669783"></polygon>
            <polygon id="Fill-209" points="40.7276977 56.2428776 42.6669783 56.2428776 42.6669783 52.3643164 40.7276977 52.3643164"></polygon>
            <polygon id="Fill-210" points="40.7276977 60.1214388 42.6669783 60.1214388 42.6669783 58.1821582 40.7276977 58.1821582"></polygon>
            <polygon id="Fill-211" points="40.7276977 64 42.6669783 64 42.6669783 60.1214388 40.7276977 60.1214388"></polygon>
            <polygon id="Fill-212" points="42.6669783 3.8785612 44.6062589 3.8785612 44.6062589 0 42.6669783 0"></polygon>
            <polygon id="Fill-213" points="42.6669783 7.75805745 44.6062589 7.75805745 44.6062589 5.81877685 42.6669783 5.81877685"></polygon>
            <polygon id="Fill-214" points="42.6669783 17.4544605 44.6062589 17.4544605 44.6062589 11.6366186 42.6669783 11.6366186"></polygon>
            <polygon id="Fill-215" points="42.6669783 23.2732373 44.6062589 23.2732373 44.6062589 19.3946761 42.6669783 19.3946761"></polygon>
            <polygon id="Fill-216" points="42.6669783 27.1517985 44.6062589 27.1517985 44.6062589 25.2125179 42.6669783 25.2125179"></polygon>
            <polygon id="Fill-217" points="42.6669783 32.9696403 44.6062589 32.9696403 44.6062589 31.0303597 42.6669783 31.0303597"></polygon>
            <polygon id="Fill-218" points="42.6669783 38.7884171 44.6062589 38.7884171 44.6062589 36.8491365 42.6669783 36.8491365"></polygon>
            <polygon id="Fill-219" points="42.6669783 46.5455395 44.6062589 46.5455395 44.6062589 44.6062589 42.6669783 44.6062589"></polygon>
            <polygon id="Fill-220" points="42.6669783 50.4250358 44.6062589 50.4250358 44.6062589 48.4857552 42.6669783 48.4857552"></polygon>
            <polygon id="Fill-221" points="42.6669783 58.1821582 44.6062589 58.1821582 44.6062589 52.3643164 42.6669783 52.3643164"></polygon>
            <polygon id="Fill-222" points="44.6062589 5.8178418 46.5455395 5.8178418 46.5455395 0 44.6062589 0"></polygon>
            <polygon id="Fill-223" points="44.6062589 9.69733805 46.5455395 9.69733805 46.5455395 5.81877685 44.6062589 5.81877685"></polygon>
            <polygon id="Fill-224" points="44.6062589 17.4544605 46.5455395 17.4544605 46.5455395 13.5758992 44.6062589 13.5758992"></polygon>
            <polygon id="Fill-225" points="44.6062589 25.2125179 46.5455395 25.2125179 46.5455395 23.2732373 44.6062589 23.2732373"></polygon>
            <polygon id="Fill-226" points="44.6062589 29.0910791 46.5455395 29.0910791 46.5455395 27.1517985 44.6062589 27.1517985"></polygon>
            <polygon id="Fill-227" points="44.6062589 34.9098559 46.5455395 34.9098559 46.5455395 32.9705753 44.6062589 32.9705753"></polygon>
            <polygon id="Fill-228" points="44.6062589 40.7276977 46.5455395 40.7276977 46.5455395 36.8491365 44.6062589 36.8491365"></polygon>
            <polygon id="Fill-229" points="44.6062589 48.4848202 46.5455395 48.4848202 46.5455395 46.5455395 44.6062589 46.5455395"></polygon>
            <polygon id="Fill-230" points="44.6062589 58.1821582 46.5455395 58.1821582 46.5455395 56.2428776 44.6062589 56.2428776"></polygon>
            <polygon id="Fill-231" points="44.6062589 64 46.5455395 64 46.5455395 60.1214388 44.6062589 60.1214388"></polygon>
            <polygon id="Fill-232" points="46.5455395 3.87949625 48.4848202 3.87949625 48.4848202 1.94021564 46.5455395 1.94021564"></polygon>
            <polygon id="Fill-233" points="46.5455395 15.5151798 48.4848202 15.5151798 48.4848202 9.69733805 46.5455395 9.69733805"></polygon>
            <polygon id="Fill-234" points="46.5455395 21.3339567 48.4848202 21.3339567 48.4848202 17.4553955 46.5455395 17.4553955"></polygon>
            <polygon id="Fill-235" points="46.5455395 27.1517985 48.4848202 27.1517985 48.4848202 23.2732373 46.5455395 23.2732373"></polygon>
            <polygon id="Fill-236" points="46.5455395 38.7874821 48.4848202 38.7874821 48.4848202 31.0303597 46.5455395 31.0303597"></polygon>
            <polygon id="Fill-237" points="46.5455395 42.6669783 48.4848202 42.6669783 48.4848202 40.7276977 46.5455395 40.7276977"></polygon>
            <polygon id="Fill-238" points="46.5455395 50.4241008 48.4848202 50.4241008 48.4848202 44.6062589 46.5455395 44.6062589"></polygon>
            <polygon id="Fill-239" points="46.5455395 56.2428776 48.4848202 56.2428776 48.4848202 50.4250358 46.5455395 50.4250358"></polygon>
            <polygon id="Fill-240" points="46.5455395 64 48.4848202 64 48.4848202 60.1214388 46.5455395 60.1214388"></polygon>
            <polygon id="Fill-241" points="48.4857552 19.3937411 50.4250358 19.3937411 50.4250358 15.5151798 48.4857552 15.5151798"></polygon>
            <polygon id="Fill-242" points="48.4857552 25.2125179 50.4250358 25.2125179 50.4250358 23.2732373 48.4857552 23.2732373"></polygon>
            <polygon id="Fill-243" points="48.4857552 29.0910791 50.4250358 29.0910791 50.4250358 27.1517985 48.4857552 27.1517985"></polygon>
            <polygon id="Fill-244" points="48.4857552 36.8491365 50.4250358 36.8491365 50.4250358 32.9705753 48.4857552 32.9705753"></polygon>
            <polygon id="Fill-245" points="48.4857552 40.7276977 50.4250358 40.7276977 50.4250358 38.7884171 48.4857552 38.7884171"></polygon>
            <polygon id="Fill-246" points="48.4857552 48.4848202 50.4250358 48.4848202 50.4250358 46.5455395 48.4857552 46.5455395"></polygon>
            <polygon id="Fill-247" points="48.4857552 56.2428776 50.4250358 56.2428776 50.4250358 54.303597 48.4857552 54.303597"></polygon>
            <polygon id="Fill-248" points="48.4857552 64 50.4250358 64 50.4250358 62.0607194 48.4857552 62.0607194"></polygon>
            <polygon id="Fill-249" points="50.4250358 5.8178418 52.3643164 5.8178418 52.3643164 0 50.4250358 0"></polygon>
            <polygon id="Fill-250" points="50.4250358 13.5758992 52.3643164 13.5758992 52.3643164 5.81877685 50.4250358 5.81877685"></polygon>
            <polygon id="Fill-251" points="50.4250358 21.3339567 52.3643164 21.3339567 52.3643164 17.4553955 50.4250358 17.4553955"></polygon>
            <polygon id="Fill-252" points="50.4250358 32.9705753 52.3643164 32.9705753 52.3643164 23.2732373 50.4250358 23.2732373"></polygon>
            <polygon id="Fill-253" points="50.4250358 42.6669783 52.3643164 42.6669783 52.3643164 40.7276977 50.4250358 40.7276977"></polygon>
            <polygon id="Fill-254" points="50.4250358 44.6062589 52.3643164 44.6062589 52.3643164 42.6669783 50.4250358 42.6669783"></polygon>
            <polygon id="Fill-255" points="50.4250358 48.4848202 52.3643164 48.4848202 52.3643164 46.5455395 50.4250358 46.5455395"></polygon>
            <polygon id="Fill-256" points="50.4250358 52.3643164 52.3643164 52.3643164 52.3643164 50.4250358 50.4250358 50.4250358"></polygon>
            <polygon id="Fill-257" points="50.4250358 58.1821582 52.3643164 58.1821582 52.3643164 54.303597 50.4250358 54.303597"></polygon>
            <polygon id="Fill-258" points="50.4250358 62.0607194 52.3643164 62.0607194 52.3643164 60.1214388 50.4250358 60.1214388"></polygon>
            <polygon id="Fill-259" points="52.3643164 1.9392806 54.303597 1.9392806 54.303597 0 52.3643164 0"></polygon>
            <polygon id="Fill-260" points="52.3643164 13.5758992 54.303597 13.5758992 54.303597 11.6366186 52.3643164 11.6366186"></polygon>
            <polygon id="Fill-261" points="52.3643164 21.3330217 54.303597 21.3330217 54.303597 15.5151798 52.3643164 15.5151798"></polygon>
            <polygon id="Fill-262" points="52.3643164 34.9098559 54.303597 34.9098559 54.303597 32.9705753 52.3643164 32.9705753"></polygon>
            <polygon id="Fill-263" points="52.3643164 38.7884171 54.303597 38.7884171 54.303597 36.8491365 52.3643164 36.8491365"></polygon>
            <polygon id="Fill-264" points="52.3643164 48.4848202 54.303597 48.4848202 54.303597 42.6669783 52.3643164 42.6669783"></polygon>
            <polygon id="Fill-265" points="52.3643164 56.2428776 54.303597 56.2428776 54.303597 54.303597 52.3643164 54.303597"></polygon>
            <polygon id="Fill-266" points="54.303597 1.9392806 56.2428776 1.9392806 56.2428776 0 54.303597 0"></polygon>
            <polygon id="Fill-267" points="54.303597 5.81877685 56.2428776 5.81877685 56.2428776 3.87949625 54.303597 3.87949625"></polygon>
            <polygon id="Fill-268" points="54.303597 9.69733805 56.2428776 9.69733805 56.2428776 5.81877685 54.303597 5.81877685"></polygon>
            <polygon id="Fill-269" points="54.303597 13.5758992 56.2428776 13.5758992 56.2428776 11.6366186 54.303597 11.6366186"></polygon>
            <polygon id="Fill-270" points="54.303597 23.2732373 56.2428776 23.2732373 56.2428776 19.3946761 54.303597 19.3946761"></polygon>
            <polygon id="Fill-271" points="54.303597 27.1517985 56.2428776 27.1517985 56.2428776 25.2125179 54.303597 25.2125179"></polygon>
            <polygon id="Fill-272" points="54.303597 32.9696403 56.2428776 32.9696403 56.2428776 29.0910791 54.303597 29.0910791"></polygon>
            <polygon id="Fill-273" points="54.303597 50.4241008 56.2428776 50.4241008 56.2428776 44.6062589 54.303597 44.6062589"></polygon>
            <polygon id="Fill-274" points="54.303597 60.1223738 56.2428776 60.1223738 56.2428776 50.4250358 54.303597 50.4250358"></polygon>
            <polygon id="Fill-275" points="54.303597 64 56.2428776 64 56.2428776 62.0607194 54.303597 62.0607194"></polygon>
            <polygon id="Fill-276" points="56.2428776 1.9392806 58.1821582 1.9392806 58.1821582 0 56.2428776 0"></polygon>
            <polygon id="Fill-277" points="56.2428776 5.81877685 58.1821582 5.81877685 58.1821582 3.87949625 56.2428776 3.87949625"></polygon>
            <polygon id="Fill-278" points="56.2428776 9.69733805 58.1821582 9.69733805 58.1821582 5.81877685 56.2428776 5.81877685"></polygon>
            <polygon id="Fill-279" points="56.2428776 13.5758992 58.1821582 13.5758992 58.1821582 11.6366186 56.2428776 11.6366186"></polygon>
            <polygon id="Fill-280" points="56.2428776 25.2125179 58.1821582 25.2125179 58.1821582 21.3339567 56.2428776 21.3339567"></polygon>
            <polygon id="Fill-281" points="56.2428776 34.9098559 58.1821582 34.9098559 58.1821582 32.9705753 56.2428776 32.9705753"></polygon>
            <polygon id="Fill-282" points="56.2428776 46.5455395 58.1821582 46.5455395 58.1821582 42.6669783 56.2428776 42.6669783"></polygon>
            <polygon id="Fill-283" points="56.2428776 50.4250358 58.1821582 50.4250358 58.1821582 48.4857552 56.2428776 48.4857552"></polygon>
            <polygon id="Fill-284" points="56.2428776 52.3643164 58.1821582 52.3643164 58.1821582 50.4250358 56.2428776 50.4250358"></polygon>
            <polygon id="Fill-285" points="56.2428776 60.1214388 58.1821582 60.1214388 58.1821582 54.303597 56.2428776 54.303597"></polygon>
            <polygon id="Fill-286" points="56.2428776 64 58.1821582 64 58.1821582 62.0607194 56.2428776 62.0607194"></polygon>
            <polygon id="Fill-287" points="58.1821582 1.9392806 60.1214388 1.9392806 60.1214388 0 58.1821582 0"></polygon>
            <polygon id="Fill-288" points="58.1821582 5.81877685 60.1214388 5.81877685 60.1214388 3.87949625 58.1821582 3.87949625"></polygon>
            <polygon id="Fill-289" points="58.1821582 9.69733805 60.1214388 9.69733805 60.1214388 5.81877685 58.1821582 5.81877685"></polygon>
            <polygon id="Fill-290" points="58.1821582 13.5758992 60.1214388 13.5758992 60.1214388 11.6366186 58.1821582 11.6366186"></polygon>
            <polygon id="Fill-291" points="58.1821582 21.3339567 60.1214388 21.3339567 60.1214388 19.3946761 58.1821582 19.3946761"></polygon>
            <polygon id="Fill-292" points="58.1821582 29.0910791 60.1214388 29.0910791 60.1214388 27.1517985 58.1821582 27.1517985"></polygon>
            <polygon id="Fill-293" points="58.1821582 36.8491365 60.1214388 36.8491365 60.1214388 34.9098559 58.1821582 34.9098559"></polygon>
            <polygon id="Fill-294" points="58.1821582 44.6062589 60.1214388 44.6062589 60.1214388 42.6669783 58.1821582 42.6669783"></polygon>
            <polygon id="Fill-295" points="58.1821582 52.3643164 60.1214388 52.3643164 60.1214388 50.4250358 58.1821582 50.4250358"></polygon>
            <polygon id="Fill-296" points="58.1821582 60.1214388 60.1214388 60.1214388 60.1214388 56.2428776 58.1821582 56.2428776"></polygon>
            <polygon id="Fill-297" points="60.1214388 1.9392806 62.0607194 1.9392806 62.0607194 0 60.1214388 0"></polygon>
            <polygon id="Fill-298" points="60.1214388 13.5758992 62.0607194 13.5758992 62.0607194 11.6366186 60.1214388 11.6366186"></polygon>
            <polygon id="Fill-299" points="60.1214388 19.3946761 62.0607194 19.3946761 62.0607194 17.4553955 60.1214388 17.4553955"></polygon>
            <polygon id="Fill-300" points="60.1214388 32.9705753 62.0607194 32.9705753 62.0607194 25.2125179 60.1214388 25.2125179"></polygon>
            <polygon id="Fill-301" points="60.1214388 42.6669783 62.0607194 42.6669783 62.0607194 34.9098559 60.1214388 34.9098559"></polygon>
            <polygon id="Fill-302" points="60.1214388 46.5455395 62.0607194 46.5455395 62.0607194 44.6062589 60.1214388 44.6062589"></polygon>
            <polygon id="Fill-303" points="60.1214388 64 62.0607194 64 62.0607194 62.0607194 60.1214388 62.0607194"></polygon>
            <polygon id="Fill-304" points="62.0607194 5.8178418 64 5.8178418 64 0 62.0607194 0"></polygon>
            <polygon id="Fill-305" points="62.0607194 13.5758992 64 13.5758992 64 5.81877685 62.0607194 5.81877685"></polygon>
            <polygon id="Fill-306" points="62.0607194 21.3339567 64 21.3339567 64 17.4553955 62.0607194 17.4553955"></polygon>
            <polygon id="Fill-307" points="62.0607194 27.1517985 64 27.1517985 64 23.2732373 62.0607194 23.2732373"></polygon>
            <polygon id="Fill-308" points="62.0607194 42.6669783 64 42.6669783 64 34.9098559 62.0607194 34.9098559"></polygon>
            <polygon id="Fill-309" points="62.0607194 44.6062589 64 44.6062589 64 42.6669783 62.0607194 42.6669783"></polygon>
            <polygon id="Fill-310" points="62.0607194 50.4241008 64 50.4241008 64 46.5455395 62.0607194 46.5455395"></polygon>
            <polygon id="Fill-311" points="62.0607194 60.1214388 64 60.1214388 64 58.1821582 62.0607194 58.1821582"></polygon>
        </g>
    </g>
</svg>
