<?xml version="1.0" encoding="UTF-8"?>
<svg width="64px" height="64px" viewBox="0 0 64 64" version="1.1" xmlns="http://www.w3.org/2000/svg" xmlns:xlink="http://www.w3.org/1999/xlink">
    <title>Justin Gagne on LinkedIn</title>
    <desc>https://www.linkedin.com/in/justingagne/</desc>
    <g id="qr-code-justin" stroke="none" stroke-width="1" fill="none" fill-rule="evenodd">
        <g id="Group-240" fill="#231F20">
            <polygon id="Fill-1" points="0 4.41402488 2.20656544 4.41402488 2.20656544 0 0 0"></polygon>
            <polygon id="Fill-2" points="0 8.82804975 2.20656544 8.82804975 2.20656544 4.41402488 0 4.41402488"></polygon>
            <polygon id="Fill-3" points="0 15.448607 2.20656544 15.448607 2.20656544 8.82804975 0 8.82804975"></polygon>
            <polygon id="Fill-4" points="0 19.8616716 2.20656544 19.8616716 2.20656544 17.6551393 0 17.6551393"></polygon>
            <polygon id="Fill-5" points="0 30.8962537 2.20656544 30.8962537 2.20656544 22.0691642 0 22.0691642"></polygon>
            <polygon id="Fill-6" points="0 46.3448607 2.20656544 46.3448607 2.20656544 35.3102786 0 35.3102786"></polygon>
            <polygon id="Fill-7" points="0 63.9990398 2.20656544 63.9990398 2.20656544 48.551393 0 48.551393"></polygon>
            <polygon id="Fill-8" points="2.20752566 2.20653234 4.4140911 2.20653234 4.4140911 0 2.20752566 0"></polygon>
            <polygon id="Fill-9" points="2.20752566 15.448607 4.4140911 15.448607 4.4140911 13.2420746 2.20752566 13.2420746"></polygon>
            <polygon id="Fill-10" points="2.20752566 22.0691642 4.4140911 22.0691642 4.4140911 19.8626318 2.20752566 19.8626318"></polygon>
            <polygon id="Fill-11" points="2.20752566 28.6897214 4.4140911 28.6897214 4.4140911 26.4831891 2.20752566 26.4831891"></polygon>
            <polygon id="Fill-12" points="2.20752566 50.7579254 4.4140911 50.7579254 4.4140911 48.551393 2.20752566 48.551393"></polygon>
            <polygon id="Fill-13" points="2.20752566 63.9990398 4.4140911 63.9990398 4.4140911 61.7925075 2.20752566 61.7925075"></polygon>
            <polygon id="Fill-14" points="4.4140911 2.20653234 6.62065654 2.20653234 6.62065654 0 4.4140911 0"></polygon>
            <polygon id="Fill-15" points="4.4140911 8.82804975 6.62065654 8.82804975 6.62065654 4.41402488 4.4140911 4.41402488"></polygon>
            <polygon id="Fill-16" points="4.4140911 11.0345821 6.62065654 11.0345821 6.62065654 8.82804975 4.4140911 8.82804975"></polygon>
            <polygon id="Fill-17" points="4.4140911 15.448607 6.62065654 15.448607 6.62065654 13.2420746 4.4140911 13.2420746"></polygon>
            <polygon id="Fill-18" points="4.4140911 28.6897214 6.62065654 28.6897214 6.62065654 17.6551393 4.4140911 17.6551393"></polygon>
            <polygon id="Fill-19" points="4.4140911 39.7233433 6.62065654 39.7233433 6.62065654 30.8962537 4.4140911 30.8962537"></polygon>
            <polygon id="Fill-20" points="4.4140911 46.3439005 6.62065654 46.3439005 6.62065654 44.1373682 4.4140911 44.1373682"></polygon>
            <polygon id="Fill-21" points="4.4140911 50.7579254 6.62065654 50.7579254 6.62065654 48.551393 4.4140911 48.551393"></polygon>
            <polygon id="Fill-22" points="4.4140911 59.5859751 6.62065654 59.5859751 6.62065654 52.9654179 4.4140911 52.9654179"></polygon>
            <polygon id="Fill-23" points="4.4140911 63.9990398 6.62065654 63.9990398 6.62065654 61.7925075 4.4140911 61.7925075"></polygon>
            <polygon id="Fill-24" points="6.62065654 2.20653234 8.82722199 2.20653234 8.82722199 0 6.62065654 0"></polygon>
            <polygon id="Fill-25" points="6.62065654 8.82804975 8.82722199 8.82804975 8.82722199 4.41402488 6.62065654 4.41402488"></polygon>
            <polygon id="Fill-26" points="6.62065654 11.0345821 8.82722199 11.0345821 8.82722199 8.82804975 6.62065654 8.82804975"></polygon>
            <polygon id="Fill-27" points="6.62065654 15.448607 8.82722199 15.448607 8.82722199 13.2420746 6.62065654 13.2420746"></polygon>
            <polygon id="Fill-28" points="6.62065654 19.8616716 8.82722199 19.8616716 8.82722199 17.6551393 6.62065654 17.6551393"></polygon>
            <polygon id="Fill-29" points="6.62065654 28.6897214 8.82722199 28.6897214 8.82722199 26.4831891 6.62065654 26.4831891"></polygon>
            <polygon id="Fill-30" points="6.62065654 35.3102786 8.82722199 35.3102786 8.82722199 30.8962537 6.62065654 30.8962537"></polygon>
            <polygon id="Fill-31" points="6.62065654 41.9308358 8.82722199 41.9308358 8.82722199 37.5168109 6.62065654 37.5168109"></polygon>
            <polygon id="Fill-32" points="6.62065654 46.3439005 8.82722199 46.3439005 8.82722199 44.1373682 6.62065654 44.1373682"></polygon>
            <polygon id="Fill-33" points="6.62065654 50.7579254 8.82722199 50.7579254 8.82722199 48.551393 6.62065654 48.551393"></polygon>
            <polygon id="Fill-34" points="6.62065654 59.5859751 8.82722199 59.5859751 8.82722199 52.9654179 6.62065654 52.9654179"></polygon>
            <polygon id="Fill-35" points="6.62065654 63.9990398 8.82722199 63.9990398 8.82722199 61.7925075 6.62065654 61.7925075"></polygon>
            <polygon id="Fill-36" points="8.8281822 2.20653234 11.0347476 2.20653234 11.0347476 0 8.8281822 0"></polygon>
            <polygon id="Fill-37" points="8.8281822 8.82804975 11.0347476 8.82804975 11.0347476 4.41402488 8.8281822 4.41402488"></polygon>
            <polygon id="Fill-38" points="8.8281822 11.0345821 11.0347476 11.0345821 11.0347476 8.82804975 8.8281822 8.82804975"></polygon>
            <polygon id="Fill-39" points="8.8281822 15.448607 11.0347476 15.448607 11.0347476 13.2420746 8.8281822 13.2420746"></polygon>
            <polygon id="Fill-40" points="8.8281822 26.4822289 11.0347476 26.4822289 11.0347476 17.6551393 8.8281822 17.6551393"></polygon>
            <polygon id="Fill-41" points="8.8281822 41.9308358 11.0347476 41.9308358 11.0347476 37.5168109 8.8281822 37.5168109"></polygon>
            <polygon id="Fill-42" points="8.8281822 50.7579254 11.0347476 50.7579254 11.0347476 48.551393 8.8281822 48.551393"></polygon>
            <polygon id="Fill-43" points="8.8281822 59.5859751 11.0347476 59.5859751 11.0347476 52.9654179 8.8281822 52.9654179"></polygon>
            <polygon id="Fill-44" points="8.8281822 63.9990398 11.0347476 63.9990398 11.0347476 61.7925075 8.8281822 61.7925075"></polygon>
            <polygon id="Fill-45" points="11.0347476 2.20653234 13.2413131 2.20653234 13.2413131 0 11.0347476 0"></polygon>
            <polygon id="Fill-46" points="11.0347476 15.448607 13.2413131 15.448607 13.2413131 13.2420746 11.0347476 13.2420746"></polygon>
            <polygon id="Fill-47" points="11.0347476 22.0691642 13.2413131 22.0691642 13.2413131 17.6551393 11.0347476 17.6551393"></polygon>
            <polygon id="Fill-48" points="11.0347476 28.6897214 13.2413131 28.6897214 13.2413131 24.2756965 11.0347476 24.2756965"></polygon>
            <polygon id="Fill-49" points="11.0347476 37.5168109 13.2413131 37.5168109 13.2413131 30.8962537 11.0347476 30.8962537"></polygon>
            <polygon id="Fill-50" points="11.0347476 44.1373682 13.2413131 44.1373682 13.2413131 41.9308358 11.0347476 41.9308358"></polygon>
            <polygon id="Fill-51" points="11.0347476 50.7579254 13.2413131 50.7579254 13.2413131 48.551393 11.0347476 48.551393"></polygon>
            <polygon id="Fill-52" points="11.0347476 63.9990398 13.2413131 63.9990398 13.2413131 61.7925075 11.0347476 61.7925075"></polygon>
            <polygon id="Fill-53" points="13.2413131 4.41402488 15.4478785 4.41402488 15.4478785 0 13.2413131 0"></polygon>
            <polygon id="Fill-54" points="13.2413131 8.82804975 15.4478785 8.82804975 15.4478785 4.41402488 13.2413131 4.41402488"></polygon>
            <polygon id="Fill-55" points="13.2413131 15.448607 15.4478785 15.448607 15.4478785 8.82804975 13.2413131 8.82804975"></polygon>
            <polygon id="Fill-56" points="13.2413131 19.8616716 15.4478785 19.8616716 15.4478785 17.6551393 13.2413131 17.6551393"></polygon>
            <polygon id="Fill-57" points="13.2413131 24.2756965 15.4478785 24.2756965 15.4478785 22.0691642 13.2413131 22.0691642"></polygon>
            <polygon id="Fill-58" points="13.2413131 28.6897214 15.4478785 28.6897214 15.4478785 26.4831891 13.2413131 26.4831891"></polygon>
            <polygon id="Fill-59" points="13.2413131 33.1027861 15.4478785 33.1027861 15.4478785 30.8962537 13.2413131 30.8962537"></polygon>
            <polygon id="Fill-60" points="13.2413131 37.5168109 15.4478785 37.5168109 15.4478785 35.3102786 13.2413131 35.3102786"></polygon>
            <polygon id="Fill-61" points="13.2413131 41.9308358 15.4478785 41.9308358 15.4478785 39.7243035 13.2413131 39.7243035"></polygon>
            <polygon id="Fill-62" points="13.2413131 46.3439005 15.4478785 46.3439005 15.4478785 44.1373682 13.2413131 44.1373682"></polygon>
            <polygon id="Fill-63" points="13.2413131 63.9990398 15.4478785 63.9990398 15.4478785 48.551393 13.2413131 48.551393"></polygon>
            <polygon id="Fill-64" points="15.4488387 30.8962537 17.6554042 30.8962537 17.6554042 22.0691642 15.4488387 22.0691642"></polygon>
            <polygon id="Fill-65" points="15.4488387 39.7233433 17.6554042 39.7233433 17.6554042 37.5168109 15.4488387 37.5168109"></polygon>
            <polygon id="Fill-66" points="15.4488387 44.1373682 17.6554042 44.1373682 17.6554042 41.9308358 15.4488387 41.9308358"></polygon>
            <polygon id="Fill-67" points="17.6554042 8.82804975 19.8619696 8.82804975 19.8619696 4.41402488 17.6554042 4.41402488"></polygon>
            <polygon id="Fill-68" points="17.6554042 17.6551393 19.8619696 17.6551393 19.8619696 8.82804975 17.6554042 8.82804975"></polygon>
            <polygon id="Fill-69" points="17.6554042 39.7243035 19.8619696 39.7243035 19.8619696 28.6897214 17.6554042 28.6897214"></polygon>
            <polygon id="Fill-70" points="17.6554042 48.551393 19.8619696 48.551393 19.8619696 44.1373682 17.6554042 44.1373682"></polygon>
            <polygon id="Fill-71" points="17.6554042 59.5850149 19.8619696 59.5850149 19.8619696 50.7579254 17.6554042 50.7579254"></polygon>
            <polygon id="Fill-72" points="17.6554042 63.9990398 19.8619696 63.9990398 19.8619696 61.7925075 17.6554042 61.7925075"></polygon>
            <polygon id="Fill-73" points="19.8629298 2.20653234 22.0694953 2.20653234 22.0694953 0 19.8629298 0"></polygon>
            <polygon id="Fill-74" points="19.8629298 8.82804975 22.0694953 8.82804975 22.0694953 4.41402488 19.8629298 4.41402488"></polygon>
            <polygon id="Fill-75" points="19.8629298 19.8626318 22.0694953 19.8626318 22.0694953 15.448607 19.8629298 15.448607"></polygon>
            <polygon id="Fill-76" points="19.8629298 24.2756965 22.0694953 24.2756965 22.0694953 22.0691642 19.8629298 22.0691642"></polygon>
            <polygon id="Fill-77" points="19.8629298 35.3102786 22.0694953 35.3102786 22.0694953 33.1037463 19.8629298 33.1037463"></polygon>
            <polygon id="Fill-78" points="19.8629298 44.1373682 22.0694953 44.1373682 22.0694953 37.5168109 19.8629298 37.5168109"></polygon>
            <polygon id="Fill-79" points="19.8629298 52.9644577 22.0694953 52.9644577 22.0694953 50.7579254 19.8629298 50.7579254"></polygon>
            <polygon id="Fill-80" points="19.8629298 59.5859751 22.0694953 59.5859751 22.0694953 57.3794428 19.8629298 57.3794428"></polygon>
            <polygon id="Fill-81" points="19.8629298 63.9990398 22.0694953 63.9990398 22.0694953 61.7925075 19.8629298 61.7925075"></polygon>
            <polygon id="Fill-82" points="22.0694953 4.41402488 24.2760607 4.41402488 24.2760607 2.20749254 22.0694953 2.20749254"></polygon>
            <polygon id="Fill-83" points="22.0694953 6.62055721 24.2760607 6.62055721 24.2760607 4.41402488 22.0694953 4.41402488"></polygon>
            <polygon id="Fill-84" points="22.0694953 15.448607 24.2760607 15.448607 24.2760607 11.0345821 22.0694953 11.0345821"></polygon>
            <polygon id="Fill-85" points="22.0694953 22.0691642 24.2760607 22.0691642 24.2760607 19.8626318 22.0694953 19.8626318"></polygon>
            <polygon id="Fill-86" points="22.0694953 37.5168109 24.2760607 37.5168109 24.2760607 24.2756965 22.0694953 24.2756965"></polygon>
            <polygon id="Fill-87" points="22.0694953 57.3784826 24.2760607 57.3784826 24.2760607 55.1719502 22.0694953 55.1719502"></polygon>
            <polygon id="Fill-88" points="24.2760607 8.82708955 26.4826262 8.82708955 26.4826262 6.62055721 24.2760607 6.62055721"></polygon>
            <polygon id="Fill-89" points="24.2760607 13.2420746 26.4826262 13.2420746 26.4826262 8.82804975 24.2760607 8.82804975"></polygon>
            <polygon id="Fill-90" points="24.2760607 22.0691642 26.4826262 22.0691642 26.4826262 15.448607 24.2760607 15.448607"></polygon>
            <polygon id="Fill-91" points="24.2760607 26.4822289 26.4826262 26.4822289 26.4826262 24.2756965 24.2760607 24.2756965"></polygon>
            <polygon id="Fill-92" points="24.2760607 35.3102786 26.4826262 35.3102786 26.4826262 28.6897214 24.2760607 28.6897214"></polygon>
            <polygon id="Fill-93" points="24.2760607 41.9308358 26.4826262 41.9308358 26.4826262 39.7243035 24.2760607 39.7243035"></polygon>
            <polygon id="Fill-94" points="24.2760607 48.551393 26.4826262 48.551393 26.4826262 46.3448607 24.2760607 46.3448607"></polygon>
            <polygon id="Fill-95" points="24.2760607 59.5859751 26.4826262 59.5859751 26.4826262 52.9654179 24.2760607 52.9654179"></polygon>
            <polygon id="Fill-96" points="26.4835864 8.82708955 28.6901518 8.82708955 28.6901518 6.62055721 26.4835864 6.62055721"></polygon>
            <polygon id="Fill-97" points="26.4835864 19.8626318 28.6901518 19.8626318 28.6901518 13.2420746 26.4835864 13.2420746"></polygon>
            <polygon id="Fill-98" points="26.4835864 33.1027861 28.6901518 33.1027861 28.6901518 30.8962537 26.4835864 30.8962537"></polygon>
            <polygon id="Fill-99" points="26.4835864 44.1373682 28.6901518 44.1373682 28.6901518 35.3102786 26.4835864 35.3102786"></polygon>
            <polygon id="Fill-100" points="26.4835864 57.3784826 28.6901518 57.3784826 28.6901518 50.7579254 26.4835864 50.7579254"></polygon>
            <polygon id="Fill-101" points="26.4835864 63.9990398 28.6901518 63.9990398 28.6901518 61.7925075 26.4835864 61.7925075"></polygon>
            <polygon id="Fill-102" points="28.6901518 4.41402488 30.8967173 4.41402488 30.8967173 2.20749254 28.6901518 2.20749254"></polygon>
            <polygon id="Fill-103" points="28.6901518 8.82708955 30.8967173 8.82708955 30.8967173 6.62055721 28.6901518 6.62055721"></polygon>
            <polygon id="Fill-104" points="28.6901518 13.2420746 30.8967173 13.2420746 30.8967173 8.82804975 28.6901518 8.82804975"></polygon>
            <polygon id="Fill-105" points="28.6901518 19.8616716 30.8967173 19.8616716 30.8967173 17.6551393 28.6901518 17.6551393"></polygon>
            <polygon id="Fill-106" points="28.6901518 33.1037463 30.8967173 33.1037463 30.8967173 26.4831891 28.6901518 26.4831891"></polygon>
            <polygon id="Fill-107" points="28.6901518 44.1373682 30.8967173 44.1373682 30.8967173 37.5168109 28.6901518 37.5168109"></polygon>
            <polygon id="Fill-108" points="28.6901518 59.5859751 30.8967173 59.5859751 30.8967173 57.3794428 28.6901518 57.3794428"></polygon>
            <polygon id="Fill-109" points="30.8967173 4.41402488 33.1032827 4.41402488 33.1032827 2.20749254 30.8967173 2.20749254"></polygon>
            <polygon id="Fill-110" points="30.8967173 8.82804975 33.1032827 8.82804975 33.1032827 4.41402488 30.8967173 4.41402488"></polygon>
            <polygon id="Fill-111" points="30.8967173 15.448607 33.1032827 15.448607 33.1032827 11.0345821 30.8967173 11.0345821"></polygon>
            <polygon id="Fill-112" points="30.8967173 19.8616716 33.1032827 19.8616716 33.1032827 17.6551393 30.8967173 17.6551393"></polygon>
            <polygon id="Fill-113" points="30.8967173 26.4831891 33.1032827 26.4831891 33.1032827 22.0691642 30.8967173 22.0691642"></polygon>
            <polygon id="Fill-114" points="30.8967173 35.3102786 33.1032827 35.3102786 33.1032827 30.8962537 30.8967173 30.8962537"></polygon>
            <polygon id="Fill-115" points="30.8967173 41.9308358 33.1032827 41.9308358 33.1032827 39.7243035 30.8967173 39.7243035"></polygon>
            <polygon id="Fill-116" points="30.8967173 46.3439005 33.1032827 46.3439005 33.1032827 44.1373682 30.8967173 44.1373682"></polygon>
            <polygon id="Fill-117" points="30.8967173 52.9644577 33.1032827 52.9644577 33.1032827 50.7579254 30.8967173 50.7579254"></polygon>
            <polygon id="Fill-118" points="30.8967173 57.3784826 33.1032827 57.3784826 33.1032827 55.1719502 30.8967173 55.1719502"></polygon>
            <polygon id="Fill-119" points="30.8967173 63.9990398 33.1032827 63.9990398 33.1032827 61.7925075 30.8967173 61.7925075"></polygon>
            <polygon id="Fill-120" points="33.1042429 4.41402488 35.3108084 4.41402488 35.3108084 2.20749254 33.1042429 2.20749254"></polygon>
            <polygon id="Fill-121" points="33.1042429 8.82804975 35.3108084 8.82804975 35.3108084 4.41402488 33.1042429 4.41402488"></polygon>
            <polygon id="Fill-122" points="33.1042429 13.2411144 35.3108084 13.2411144 35.3108084 11.0345821 33.1042429 11.0345821"></polygon>
            <polygon id="Fill-123" points="33.1042429 19.8616716 35.3108084 19.8616716 35.3108084 17.6551393 33.1042429 17.6551393"></polygon>
            <polygon id="Fill-124" points="33.1042429 24.2756965 35.3108084 24.2756965 35.3108084 22.0691642 33.1042429 22.0691642"></polygon>
            <polygon id="Fill-125" points="33.1042429 35.3102786 35.3108084 35.3102786 35.3108084 30.8962537 33.1042429 30.8962537"></polygon>
            <polygon id="Fill-126" points="33.1042429 46.3448607 35.3108084 46.3448607 35.3108084 39.7243035 33.1042429 39.7243035"></polygon>
            <polygon id="Fill-127" points="33.1042429 50.7579254 35.3108084 50.7579254 35.3108084 48.551393 33.1042429 48.551393"></polygon>
            <polygon id="Fill-128" points="33.1042429 55.1719502 35.3108084 55.1719502 35.3108084 52.9654179 33.1042429 52.9654179"></polygon>
            <polygon id="Fill-129" points="33.1042429 64 35.3108084 64 35.3108084 57.3794428 33.1042429 57.3794428"></polygon>
            <polygon id="Fill-130" points="35.3108084 4.41402488 37.5173738 4.41402488 37.5173738 0 35.3108084 0"></polygon>
            <polygon id="Fill-131" points="35.3108084 17.6551393 37.5173738 17.6551393 37.5173738 8.82804975 35.3108084 8.82804975"></polygon>
            <polygon id="Fill-132" points="35.3108084 22.0691642 37.5173738 22.0691642 37.5173738 19.8626318 35.3108084 19.8626318"></polygon>
            <polygon id="Fill-133" points="35.3108084 26.4822289 37.5173738 26.4822289 37.5173738 24.2756965 35.3108084 24.2756965"></polygon>
            <polygon id="Fill-134" points="35.3108084 33.1037463 37.5173738 33.1037463 37.5173738 28.6897214 35.3108084 28.6897214"></polygon>
            <polygon id="Fill-135" points="35.3108084 39.7233433 37.5173738 39.7233433 37.5173738 37.5168109 35.3108084 37.5168109"></polygon>
            <polygon id="Fill-136" points="35.3108084 50.7579254 37.5173738 50.7579254 37.5173738 41.9308358 35.3108084 41.9308358"></polygon>
            <polygon id="Fill-137" points="35.3108084 64 37.5173738 64 37.5173738 52.9654179 35.3108084 52.9654179"></polygon>
            <polygon id="Fill-138" points="37.5173738 4.41402488 39.7239393 4.41402488 39.7239393 0 37.5173738 0"></polygon>
            <polygon id="Fill-139" points="37.5173738 8.82708955 39.7239393 8.82708955 39.7239393 6.62055721 37.5173738 6.62055721"></polygon>
            <polygon id="Fill-140" points="37.5173738 11.0345821 39.7239393 11.0345821 39.7239393 8.82804975 37.5173738 8.82804975"></polygon>
            <polygon id="Fill-141" points="37.5173738 24.2756965 39.7239393 24.2756965 39.7239393 17.6551393 37.5173738 17.6551393"></polygon>
            <polygon id="Fill-142" points="37.5173738 30.8972139 39.7239393 30.8972139 39.7239393 26.4831891 37.5173738 26.4831891"></polygon>
            <polygon id="Fill-143" points="37.5173738 41.9308358 39.7239393 41.9308358 39.7239393 35.3102786 37.5173738 35.3102786"></polygon>
            <polygon id="Fill-144" points="37.5173738 50.7579254 39.7239393 50.7579254 39.7239393 44.1373682 37.5173738 44.1373682"></polygon>
            <polygon id="Fill-145" points="37.5173738 59.5859751 39.7239393 59.5859751 39.7239393 52.9654179 37.5173738 52.9654179"></polygon>
            <polygon id="Fill-146" points="37.5173738 63.9990398 39.7239393 63.9990398 39.7239393 61.7925075 37.5173738 61.7925075"></polygon>
            <polygon id="Fill-147" points="39.7248995 2.20653234 41.9314649 2.20653234 41.9314649 0 39.7248995 0"></polygon>
            <polygon id="Fill-148" points="39.7248995 11.0345821 41.9314649 11.0345821 41.9314649 8.82804975 39.7248995 8.82804975"></polygon>
            <polygon id="Fill-149" points="39.7248995 15.448607 41.9314649 15.448607 41.9314649 13.2420746 39.7248995 13.2420746"></polygon>
            <polygon id="Fill-150" points="39.7248995 22.0691642 41.9314649 22.0691642 41.9314649 17.6551393 39.7248995 17.6551393"></polygon>
            <polygon id="Fill-151" points="39.7248995 33.1037463 41.9314649 33.1037463 41.9314649 28.6897214 39.7248995 28.6897214"></polygon>
            <polygon id="Fill-152" points="39.7248995 39.7233433 41.9314649 39.7233433 41.9314649 37.5168109 39.7248995 37.5168109"></polygon>
            <polygon id="Fill-153" points="39.7248995 48.551393 41.9314649 48.551393 41.9314649 41.9308358 39.7248995 41.9308358"></polygon>
            <polygon id="Fill-154" points="39.7248995 61.7925075 41.9314649 61.7925075 41.9314649 55.1719502 39.7248995 55.1719502"></polygon>
            <polygon id="Fill-155" points="41.9314649 2.20653234 44.1380304 2.20653234 44.1380304 0 41.9314649 0"></polygon>
            <polygon id="Fill-156" points="41.9314649 6.62055721 44.1380304 6.62055721 44.1380304 4.41402488 41.9314649 4.41402488"></polygon>
            <polygon id="Fill-157" points="41.9314649 11.0345821 44.1380304 11.0345821 44.1380304 8.82804975 41.9314649 8.82804975"></polygon>
            <polygon id="Fill-158" points="41.9314649 22.0691642 44.1380304 22.0691642 44.1380304 15.448607 41.9314649 15.448607"></polygon>
            <polygon id="Fill-159" points="41.9314649 30.8962537 44.1380304 30.8962537 44.1380304 24.2756965 41.9314649 24.2756965"></polygon>
            <polygon id="Fill-160" points="41.9314649 39.7243035 44.1380304 39.7243035 44.1380304 35.3102786 41.9314649 35.3102786"></polygon>
            <polygon id="Fill-161" points="41.9314649 52.9654179 44.1380304 52.9654179 44.1380304 48.551393 41.9314649 48.551393"></polygon>
            <polygon id="Fill-162" points="41.9314649 59.5859751 44.1380304 59.5859751 44.1380304 55.1719502 41.9314649 55.1719502"></polygon>
            <polygon id="Fill-163" points="41.9314649 63.9990398 44.1380304 63.9990398 44.1380304 61.7925075 41.9314649 61.7925075"></polygon>
            <polygon id="Fill-164" points="44.1380304 4.41402488 46.3445958 4.41402488 46.3445958 0 44.1380304 0"></polygon>
            <polygon id="Fill-165" points="44.1380304 11.0345821 46.3445958 11.0345821 46.3445958 8.82804975 44.1380304 8.82804975"></polygon>
            <polygon id="Fill-166" points="44.1380304 17.6560995 46.3445958 17.6560995 46.3445958 13.2420746 44.1380304 13.2420746"></polygon>
            <polygon id="Fill-167" points="44.1380304 26.4822289 46.3445958 26.4822289 46.3445958 24.2756965 44.1380304 24.2756965"></polygon>
            <polygon id="Fill-168" points="44.1380304 33.1037463 46.3445958 33.1037463 46.3445958 28.6897214 44.1380304 28.6897214"></polygon>
            <polygon id="Fill-169" points="44.1380304 39.7233433 46.3445958 39.7233433 46.3445958 37.5168109 44.1380304 37.5168109"></polygon>
            <polygon id="Fill-170" points="44.1380304 55.1719502 46.3445958 55.1719502 46.3445958 41.9308358 44.1380304 41.9308358"></polygon>
            <polygon id="Fill-171" points="44.1380304 61.7925075 46.3445958 61.7925075 46.3445958 59.5859751 44.1380304 59.5859751"></polygon>
            <polygon id="Fill-172" points="46.345556 22.0691642 48.5521215 22.0691642 48.5521215 19.8626318 46.345556 19.8626318"></polygon>
            <polygon id="Fill-173" points="46.345556 26.4822289 48.5521215 26.4822289 48.5521215 24.2756965 46.345556 24.2756965"></polygon>
            <polygon id="Fill-174" points="46.345556 33.1037463 48.5521215 33.1037463 48.5521215 28.6897214 46.345556 28.6897214"></polygon>
            <polygon id="Fill-175" points="46.345556 39.7233433 48.5521215 39.7233433 48.5521215 37.5168109 46.345556 37.5168109"></polygon>
            <polygon id="Fill-176" points="46.345556 46.3448607 48.5521215 46.3448607 48.5521215 41.9308358 46.345556 41.9308358"></polygon>
            <polygon id="Fill-177" points="46.345556 55.1719502 48.5521215 55.1719502 48.5521215 52.9654179 46.345556 52.9654179"></polygon>
            <polygon id="Fill-178" points="46.345556 61.7934677 48.5521215 61.7934677 48.5521215 57.3794428 46.345556 57.3794428"></polygon>
            <polygon id="Fill-179" points="48.5521215 4.41402488 50.7586869 4.41402488 50.7586869 0 48.5521215 0"></polygon>
            <polygon id="Fill-180" points="48.5521215 8.82804975 50.7586869 8.82804975 50.7586869 4.41402488 48.5521215 4.41402488"></polygon>
            <polygon id="Fill-181" points="48.5521215 15.448607 50.7586869 15.448607 50.7586869 8.82804975 48.5521215 8.82804975"></polygon>
            <polygon id="Fill-182" points="48.5521215 24.2756965 50.7586869 24.2756965 50.7586869 17.6551393 48.5521215 17.6551393"></polygon>
            <polygon id="Fill-183" points="48.5521215 33.1037463 50.7586869 33.1037463 50.7586869 28.6897214 48.5521215 28.6897214"></polygon>
            <polygon id="Fill-184" points="48.5521215 46.3439005 50.7586869 46.3439005 50.7586869 37.5168109 48.5521215 37.5168109"></polygon>
            <polygon id="Fill-185" points="48.5521215 50.7579254 50.7586869 50.7579254 50.7586869 48.551393 48.5521215 48.551393"></polygon>
            <polygon id="Fill-186" points="48.5521215 55.1719502 50.7586869 55.1719502 50.7586869 52.9654179 48.5521215 52.9654179"></polygon>
            <polygon id="Fill-187" points="48.5521215 64 50.7586869 64 50.7586869 57.3794428 48.5521215 57.3794428"></polygon>
            <polygon id="Fill-188" points="50.7586869 2.20653234 52.9652524 2.20653234 52.9652524 0 50.7586869 0"></polygon>
            <polygon id="Fill-189" points="50.7586869 15.448607 52.9652524 15.448607 52.9652524 13.2420746 50.7586869 13.2420746"></polygon>
            <polygon id="Fill-190" points="50.7586869 22.0691642 52.9652524 22.0691642 52.9652524 17.6551393 50.7586869 17.6551393"></polygon>
            <polygon id="Fill-191" points="50.7586869 26.4822289 52.9652524 26.4822289 52.9652524 24.2756965 50.7586869 24.2756965"></polygon>
            <polygon id="Fill-192" points="50.7586869 46.3439005 52.9652524 46.3439005 52.9652524 30.8962537 50.7586869 30.8962537"></polygon>
            <polygon id="Fill-193" points="50.7586869 64 52.9652524 64 52.9652524 52.9654179 50.7586869 52.9654179"></polygon>
            <polygon id="Fill-194" points="52.9662126 2.20653234 55.172778 2.20653234 55.172778 0 52.9662126 0"></polygon>
            <polygon id="Fill-195" points="52.9662126 8.82804975 55.172778 8.82804975 55.172778 4.41402488 52.9662126 4.41402488"></polygon>
            <polygon id="Fill-196" points="52.9662126 11.0345821 55.172778 11.0345821 55.172778 8.82804975 52.9662126 8.82804975"></polygon>
            <polygon id="Fill-197" points="52.9662126 15.448607 55.172778 15.448607 55.172778 13.2420746 52.9662126 13.2420746"></polygon>
            <polygon id="Fill-198" points="52.9662126 22.0691642 55.172778 22.0691642 55.172778 17.6551393 52.9662126 17.6551393"></polygon>
            <polygon id="Fill-199" points="52.9662126 30.8962537 55.172778 30.8962537 55.172778 28.6897214 52.9662126 28.6897214"></polygon>
            <polygon id="Fill-200" points="52.9662126 35.3102786 55.172778 35.3102786 55.172778 33.1037463 52.9662126 33.1037463"></polygon>
            <polygon id="Fill-201" points="52.9662126 39.7233433 55.172778 39.7233433 55.172778 37.5168109 52.9662126 37.5168109"></polygon>
            <polygon id="Fill-202" points="52.9662126 55.1719502 55.172778 55.1719502 55.172778 41.9308358 52.9662126 41.9308358"></polygon>
            <polygon id="Fill-203" points="52.9662126 59.5859751 55.172778 59.5859751 55.172778 57.3794428 52.9662126 57.3794428"></polygon>
            <polygon id="Fill-204" points="52.9662126 63.9990398 55.172778 63.9990398 55.172778 61.7925075 52.9662126 61.7925075"></polygon>
            <polygon id="Fill-205" points="55.172778 2.20653234 57.3793435 2.20653234 57.3793435 0 55.172778 0"></polygon>
            <polygon id="Fill-206" points="55.172778 8.82804975 57.3793435 8.82804975 57.3793435 4.41402488 55.172778 4.41402488"></polygon>
            <polygon id="Fill-207" points="55.172778 11.0345821 57.3793435 11.0345821 57.3793435 8.82804975 55.172778 8.82804975"></polygon>
            <polygon id="Fill-208" points="55.172778 15.448607 57.3793435 15.448607 57.3793435 13.2420746 55.172778 13.2420746"></polygon>
            <polygon id="Fill-209" points="55.172778 19.8616716 57.3793435 19.8616716 57.3793435 17.6551393 55.172778 17.6551393"></polygon>
            <polygon id="Fill-210" points="55.172778 28.6897214 57.3793435 28.6897214 57.3793435 24.2756965 55.172778 24.2756965"></polygon>
            <polygon id="Fill-211" points="55.172778 33.1027861 57.3793435 33.1027861 57.3793435 30.8962537 55.172778 30.8962537"></polygon>
            <polygon id="Fill-212" points="55.172778 37.5168109 57.3793435 37.5168109 57.3793435 35.3102786 55.172778 35.3102786"></polygon>
            <polygon id="Fill-213" points="55.172778 50.7588856 57.3793435 50.7588856 57.3793435 46.3448607 55.172778 46.3448607"></polygon>
            <polygon id="Fill-214" points="55.172778 63.9990398 57.3793435 63.9990398 57.3793435 55.1719502 55.172778 55.1719502"></polygon>
            <polygon id="Fill-215" points="57.3803037 2.20653234 59.5868691 2.20653234 59.5868691 0 57.3803037 0"></polygon>
            <polygon id="Fill-216" points="57.3803037 8.82804975 59.5868691 8.82804975 59.5868691 4.41402488 57.3803037 4.41402488"></polygon>
            <polygon id="Fill-217" points="57.3803037 11.0345821 59.5868691 11.0345821 59.5868691 8.82804975 57.3803037 8.82804975"></polygon>
            <polygon id="Fill-218" points="57.3803037 15.448607 59.5868691 15.448607 59.5868691 13.2420746 57.3803037 13.2420746"></polygon>
            <polygon id="Fill-219" points="57.3803037 19.8616716 59.5868691 19.8616716 59.5868691 17.6551393 57.3803037 17.6551393"></polygon>
            <polygon id="Fill-220" points="57.3803037 28.6897214 59.5868691 28.6897214 59.5868691 26.4831891 57.3803037 26.4831891"></polygon>
            <polygon id="Fill-221" points="57.3803037 33.1027861 59.5868691 33.1027861 59.5868691 30.8962537 57.3803037 30.8962537"></polygon>
            <polygon id="Fill-222" points="57.3803037 41.9308358 59.5868691 41.9308358 59.5868691 35.3102786 57.3803037 35.3102786"></polygon>
            <polygon id="Fill-223" points="57.3803037 50.7579254 59.5868691 50.7579254 59.5868691 44.1373682 57.3803037 44.1373682"></polygon>
            <polygon id="Fill-224" points="57.3803037 59.5859751 59.5868691 59.5859751 59.5868691 52.9654179 57.3803037 52.9654179"></polygon>
            <polygon id="Fill-225" points="57.3803037 63.9990398 59.5868691 63.9990398 59.5868691 61.7925075 57.3803037 61.7925075"></polygon>
            <polygon id="Fill-226" points="59.5868691 2.20653234 61.7934346 2.20653234 61.7934346 0 59.5868691 0"></polygon>
            <polygon id="Fill-227" points="59.5868691 15.448607 61.7934346 15.448607 61.7934346 13.2420746 59.5868691 13.2420746"></polygon>
            <polygon id="Fill-228" points="59.5868691 26.4822289 61.7934346 26.4822289 61.7934346 24.2756965 59.5868691 24.2756965"></polygon>
            <polygon id="Fill-229" points="59.5868691 35.3102786 61.7934346 35.3102786 61.7934346 33.1037463 59.5868691 33.1037463"></polygon>
            <polygon id="Fill-230" points="59.5868691 48.551393 61.7934346 48.551393 61.7934346 41.9308358 59.5868691 41.9308358"></polygon>
            <polygon id="Fill-231" points="59.5868691 61.7925075 61.7934346 61.7925075 61.7934346 50.7579254 59.5868691 50.7579254"></polygon>
            <polygon id="Fill-232" points="61.7934346 4.41402488 64 4.41402488 64 0 61.7934346 0"></polygon>
            <polygon id="Fill-233" points="61.7934346 8.82804975 64 8.82804975 64 4.41402488 61.7934346 4.41402488"></polygon>
            <polygon id="Fill-234" points="61.7934346 15.448607 64 15.448607 64 8.82804975 61.7934346 8.82804975"></polygon>
            <polygon id="Fill-235" points="61.7934346 22.0691642 64 22.0691642 64 19.8626318 61.7934346 19.8626318"></polygon>
            <polygon id="Fill-236" points="61.7934346 30.8962537 64 30.8962537 64 28.6897214 61.7934346 28.6897214"></polygon>
            <polygon id="Fill-237" points="61.7934346 39.7233433 64 39.7233433 64 37.5168109 61.7934346 37.5168109"></polygon>
            <polygon id="Fill-238" points="61.7934346 48.551393 64 48.551393 64 44.1373682 61.7934346 44.1373682"></polygon>
            <polygon id="Fill-239" points="61.7934346 57.3794428 64 57.3794428 64 52.9654179 61.7934346 52.9654179"></polygon>
        </g>
    </g>
</svg>
